<?xml version="1.0"?>
<svg xmlns="http://www.w3.org/2000/svg" id="Layer_1" data-name="Layer 1" viewBox="0 0 512 512" width="512" height="512"><title>Car Battery </title><path d="M249.677,248.369a7,7,0,0,1-2.13-7.358L266.536,179H241.954L225.105,282.621l27.765-13.882A7,7,0,0,1,263,275v31.447l21.6-70.206L257.271,249.37A7,7,0,0,1,249.677,248.369Z"/><rect x="372" y="114" width="36" height="15"/><rect x="103" y="114" width="36" height="15"/><path d="M435,143H76a3,3,0,0,0-3,3V395a3,3,0,0,0,3,3H435a3,3,0,0,0,3-3V146A3,3,0,0,0,435,143ZM302.69,225.059l-40,130A7,7,0,0,1,249,353V286.326l-29.87,14.935a7,7,0,0,1-10.039-7.384l20-123A7,7,0,0,1,236,165h40a7,7,0,0,1,6.693,9.05l-17.081,55.782,27.357-13.142a7,7,0,0,1,9.721,8.369Z"/></svg>
