<?xml version="1.0" encoding="utf-8"?>
<!-- Generator: Adobe Illustrator 23.0.2, SVG Export Plug-In . SVG Version: 6.00 Build 0)  -->
<svg version="1.1" id="Capa_1" xmlns="http://www.w3.org/2000/svg" xmlns:xlink="http://www.w3.org/1999/xlink" x="0px" y="0px"
	 viewBox="0 0 450 450" style="enable-background:new 0 0 450 450;" xml:space="preserve">
<style type="text/css">
	.st0{fill:#003560;}
	.st1{fill:#FFFFFF;}
	.st2{fill:#84A338;}
</style>
<path class="st0" d="M321.5,295.3c6.8-5.7,14.9-9.8,23.8-11.7c3.9-0.9,8-1.4,12.2-1.4c3,0,6,0.2,8.9,0.7c19.2,3.1,35.3,16.1,43,33.7
	c-3.6-16.4-14-30.1-28.1-38.1v-1.7c1.3,1.5,3.3,2.5,5.5,2.5c4,0,2.6-3.2,2.6-7.2s1.4-7.3-2.6-7.3c-3.5,0-6.5,2.5-7.1,5.9
	c-0.6,0.2-1,0.7-1,1.4c0,0.5,0.3,1,0.7,1.3v4.1c-1.6-0.8-3.3-1.6-5-2.3c0.4-1.3,0.7-2.7,0.7-4.1c0-6.9-2.1-18.4-9-18.4l-33.6,5.9
	c-6.9,0-16.4,8.9-16.4,15.8c-0.5,0.9-1.1,1.8-1.6,2.6c-3.6,5.2-7.6,7.5-11,8.3c-1.5,0.4-2.8,0.5-4,0.5c-0.2,0-0.4,0-0.7,0
	c-0.2,2.3-0.6,4.5-1.3,6.6C294,302.6,284.4,310,273,310h-11.1h-1.4c-0.4,0-0.8,0-1.2,0c-9.1-0.7-18.7-9.2-23.7-14.3
	c-1.2-1.3-2.9-3.1-4.7-5.3c-0.6-0.8-1.3-1.6-1.9-2.5c-2.4-3.2-4.7-7-6-10.8h-8.7c-9.2-7.8-21-12.8-33.8-13.5v-8.2
	c0.5-0.3,0.8-0.8,0.8-1.4c0-0.7-0.5-1.4-1.1-1.6c-0.7-3.8-4.1-6.7-8.1-6.7c-4.6,0-3,3.7-3,8.3c0,4.6-1.6,8.3,3,8.3
	c2.5,0,4.7-1.1,6.3-2.9v4.1c-0.4,0-0.8,0-1.2,0c-8.5,0-16.6,1.8-23.8,5.1v9.6c5.9-1.9,13.6-3.5,19.5-3.5c14.3,0,27.4,5.4,37.4,14.4
	c8.8,7.9,15.3,18.6,18,30.7c0.2,0.8,0.3,1.6,0.5,2.5c0.6,3.5,1,7,1,10.7c0,1.1,0,2.1-0.1,3.2c0,0.6-0.1,1.3-0.1,1.9
	s-0.1,1.1-0.2,1.7c-0.1,0.6-0.1,1.1-0.2,1.7c-0.1,0.5-0.2,1.1-0.3,1.6l0,0H256c0.2,0,0.5-0.1,0.6-0.2c0.4-0.1,0.8-0.5,0.8-0.9v-5.8
	h38h5.3C301.9,319.6,309.8,305.1,321.5,295.3 M233.1,335.9h22v1.9h-22.5C232.8,337.2,232.9,336.5,233.1,335.9"/>
<path class="st0" d="M217.9,327.5c0.5-0.3,0.8-0.6,0.8-0.6s0-0.4-0.1-1c0-0.6-0.2-1.5-0.3-2.3s-0.3-1.7-0.4-2.3
	c-0.1-0.6-0.2-1-0.2-1s-1.5-0.5-2.9-1c-0.1,0-0.2-0.1-0.3-0.1c-0.2-0.9-0.5-1.8-0.8-2.7c0.1-0.1,0.1-0.2,0.2-0.3
	c0.5-0.6,1-1.2,1.3-1.6c0.4-0.5,0.6-0.8,0.6-0.8s-0.2-0.4-0.4-1c-0.1-0.3-0.2-0.6-0.4-1s-0.3-0.7-0.5-1.1c-0.3-0.8-0.7-1.5-1-2.1
	s-0.5-0.9-0.5-0.9s-0.6,0-1.3-0.1c-0.5,0-1.1,0-1.7-0.1h-0.3c-0.5-0.8-1-1.6-1.5-2.4c0.1-0.1,0.1-0.2,0.1-0.3
	c0.6-1.4,1.1-2.8,1.1-2.8s-0.2-0.3-0.6-0.8c-0.2-0.2-0.4-0.5-0.7-0.8s-0.5-0.6-0.8-0.9s-0.5-0.6-0.8-0.9s-0.5-0.5-0.7-0.8
	c-0.4-0.5-0.7-0.8-0.7-0.8s-1.5,0.3-3,0.7c-0.1,0-0.2,0.1-0.3,0.1c-0.7-0.6-1.4-1.3-2.1-1.8c0-0.1,0-0.2,0-0.3
	c0.2-1.5,0.3-3.1,0.3-3.1s-0.3-0.2-0.9-0.6c-0.5-0.4-1.2-0.9-1.9-1.3c-0.4-0.2-0.7-0.5-1-0.7s-0.7-0.4-0.9-0.5
	c-0.5-0.3-0.9-0.5-0.9-0.5s-0.3,0.2-0.8,0.5s-1.2,0.7-1.8,1.1c-0.1,0.1-0.2,0.1-0.3,0.2c-0.8-0.4-1.7-0.8-2.6-1.2c0-0.1,0-0.2,0-0.3
	c-0.2-1.5-0.6-3-0.6-3s-0.1,0-0.3-0.1s-0.4-0.1-0.7-0.2c-0.6-0.2-1.4-0.5-2.2-0.7s-1.6-0.5-2.2-0.6c-0.6-0.1-1-0.2-1-0.2
	s-0.3,0.3-0.7,0.7c-0.4,0.4-0.9,1-1.4,1.5c-0.1,0.1-0.1,0.2-0.2,0.2c-0.9-0.2-1.8-0.3-2.8-0.4c0-0.1-0.1-0.2-0.1-0.3
	c-0.7-1.4-1.4-2.7-1.4-2.7s-0.4,0-1.1-0.1c-0.6,0-1.5,0-2.3-0.1c-0.8,0-1.7,0-2.3,0.1c-0.6,0-1,0.1-1,0.1s-0.8,1.3-1.4,2.7
	c-0.1,0.1-0.1,0.2-0.1,0.3c-0.9,0.1-1.9,0.2-2.8,0.4c-0.1-0.1-0.1-0.2-0.2-0.2c-0.5-0.6-1-1.1-1.4-1.5s-0.7-0.7-0.7-0.7
	s-0.4,0.1-1,0.2s-1.4,0.4-2.2,0.6s-1.6,0.5-2.2,0.7c-0.3,0.1-0.5,0.2-0.7,0.2c-0.2,0.1-0.3,0.1-0.3,0.1s-0.3,1.5-0.6,3
	c0,0.1,0,0.2,0,0.3c-0.5,0.2-1,0.4-1.5,0.7c-0.4,0.2-0.7,0.3-1.1,0.5c-0.1-0.1-0.2-0.1-0.3-0.2c-0.3-0.2-0.6-0.4-0.9-0.5
	c-0.3-0.2-0.6-0.4-0.9-0.5c-0.5-0.3-0.9-0.5-0.9-0.5s-0.4,0.2-0.9,0.5c-0.3,0.2-0.6,0.3-0.9,0.5c-0.3,0.2-0.7,0.4-1,0.7
	c-0.7,0.4-1.4,0.9-1.9,1.3s-0.9,0.6-0.9,0.6s0.1,1.6,0.3,3.1c0,0.1,0,0.2,0,0.3c-0.7,0.6-1.4,1.2-2.1,1.8c-0.1,0-0.2-0.1-0.3-0.1
	c-1.5-0.4-3-0.7-3-0.7s-0.3,0.3-0.7,0.8c-0.2,0.2-0.5,0.5-0.7,0.8c-0.3,0.3-0.5,0.6-0.8,0.9s-0.5,0.6-0.8,0.9
	c-0.2,0.3-0.5,0.6-0.7,0.8c-0.4,0.5-0.7,0.8-0.7,0.8s0.6,1.5,1.2,2.8c0,0.1,0.1,0.2,0.1,0.3c-0.5,0.8-1,1.6-1.5,2.4h-0.3
	c-1.5,0-3.1,0.1-3.1,0.1s-0.2,0.4-0.5,0.9c-0.3,0.6-0.7,1.3-1,2.1c-0.2,0.4-0.3,0.8-0.5,1.1c-0.2,0.4-0.3,0.7-0.4,1
	c-0.2,0.6-0.4,1-0.4,1s0.2,0.3,0.6,0.8s0.8,1.1,1.3,1.6c0.1,0.1,0.1,0.2,0.2,0.3c-0.3,0.9-0.6,1.8-0.8,2.7c-0.1,0-0.2,0.1-0.3,0.1
	c-1.4,0.4-2.9,1-2.9,1s-0.1,0.4-0.2,1s-0.3,1.4-0.4,2.3c-0.1,0.8-0.2,1.7-0.3,2.3c-0.1,0.6-0.1,1-0.1,1s0.3,0.2,0.8,0.6
	c0.5,0.3,1.1,0.8,1.7,1.2c0.1,0.1,0.2,0.1,0.3,0.2c0,0.5,0,0.9,0,1.4s0,0.9,0,1.4c-0.1,0.1-0.2,0.1-0.3,0.2
	c-0.6,0.4-1.3,0.9-1.7,1.2c-0.5,0.3-0.8,0.6-0.8,0.6s0,0.4,0.1,1c0,0.6,0.2,1.5,0.3,2.3c0.1,0.8,0.3,1.7,0.4,2.3
	c0.1,0.6,0.2,1,0.2,1s1.4,0.5,2.9,1c0.1,0,0.2,0.1,0.3,0.1c0.2,0.9,0.5,1.8,0.8,2.7c-0.1,0.1-0.1,0.2-0.2,0.3
	c-0.5,0.6-1,1.2-1.3,1.6c-0.4,0.5-0.6,0.8-0.6,0.8s0.1,0.4,0.4,1c0.1,0.3,0.2,0.6,0.4,1s0.3,0.7,0.5,1.1c0.3,0.8,0.7,1.5,1,2.1
	s0.5,0.9,0.5,0.9s1.6,0.1,3.1,0.1c0.1,0,0.2,0,0.3,0c0.5,0.8,1,1.6,1.5,2.4c0,0.1-0.1,0.2-0.1,0.3c-0.6,1.4-1.2,2.8-1.2,2.8
	s0.3,0.3,0.7,0.8c0.2,0.3,0.4,0.5,0.7,0.8s0.5,0.6,0.8,0.9s0.5,0.6,0.8,0.9s0.5,0.5,0.7,0.8c0.4,0.4,0.7,0.8,0.7,0.8s1.5-0.3,3-0.7
	c0.1,0,0.2-0.1,0.3-0.1c0.7,0.6,1.4,1.2,2.1,1.8c0,0.1,0,0.2,0,0.3c-0.2,1.5-0.3,3-0.3,3s0.3,0.2,0.9,0.6c0.5,0.4,1.2,0.9,1.9,1.3
	c0.4,0.2,0.7,0.4,1,0.7c0.3,0.2,0.7,0.4,0.9,0.5c0.5,0.3,0.9,0.5,0.9,0.5s0.3-0.2,0.9-0.5c0.5-0.3,1.2-0.7,1.8-1.1
	c0.1-0.1,0.2-0.1,0.3-0.2c0.2,0.1,0.4,0.2,0.7,0.3c0.1,0.1,0.3,0.1,0.4,0.2c0.5,0.2,1,0.5,1.5,0.7c0,0.1,0,0.2,0,0.3
	c0.2,1.5,0.6,3,0.6,3s0.1,0,0.3,0.1s0.4,0.1,0.7,0.2c0.6,0.2,1.4,0.5,2.2,0.7s1.6,0.5,2.2,0.6c0.6,0.1,1,0.2,1,0.2s0.3-0.3,0.7-0.7
	c0.4-0.4,0.9-1,1.4-1.5c0.1-0.1,0.1-0.2,0.2-0.2c0.9,0.2,1.8,0.3,2.8,0.4c0,0.1,0.1,0.2,0.1,0.3c0.6,1.4,1.4,2.7,1.4,2.7
	s0.4,0,1,0.1c0.6,0,1.5,0,2.3,0.1c0.8,0,1.7,0,2.3-0.1c0.6,0,1.1-0.1,1.1-0.1s0.7-1.3,1.4-2.7c0.1-0.1,0.1-0.2,0.1-0.3
	c0.9-0.1,1.9-0.2,2.8-0.4c0.1,0.1,0.1,0.2,0.2,0.2c0.5,0.6,1,1.1,1.4,1.5s0.7,0.7,0.7,0.7s0.4-0.1,1-0.2s1.4-0.4,2.2-0.6
	s1.6-0.5,2.2-0.7c0.3-0.1,0.5-0.2,0.7-0.2c0.2-0.1,0.3-0.1,0.3-0.1s0.3-1.5,0.6-3c0-0.1,0-0.2,0-0.3c0.9-0.4,1.7-0.8,2.6-1.2
	c0.1,0.1,0.2,0.1,0.3,0.2c0.6,0.4,1.3,0.8,1.8,1.1c0.5,0.3,0.8,0.5,0.8,0.5s0.4-0.2,0.9-0.5c0.3-0.2,0.6-0.3,0.9-0.5
	c0.3-0.2,0.7-0.4,1-0.7c0.7-0.4,1.4-0.9,1.9-1.3s0.9-0.6,0.9-0.6s-0.1-1.6-0.3-3c0-0.1,0-0.2,0-0.3c0.7-0.6,1.4-1.2,2.1-1.8
	c0.1,0,0.2,0.1,0.3,0.1c1.5,0.4,3,0.7,3,0.7s0.3-0.3,0.7-0.8c0.2-0.2,0.5-0.5,0.7-0.8c0.3-0.3,0.5-0.6,0.8-0.9s0.5-0.6,0.8-0.9
	c0.2-0.3,0.5-0.6,0.7-0.8c0.4-0.5,0.6-0.8,0.6-0.8s-0.5-1.5-1.1-2.8c0-0.1-0.1-0.2-0.1-0.3c0.5-0.8,1-1.6,1.5-2.4c0.1,0,0.2,0,0.3,0
	c1.5,0,3.1-0.1,3.1-0.1s0.2-0.4,0.5-0.9c0.3-0.6,0.7-1.3,1-2.1c0.2-0.4,0.4-0.8,0.5-1.1c0.2-0.4,0.3-0.7,0.4-1c0.2-0.6,0.4-1,0.4-1
	s-0.2-0.3-0.6-0.8c-0.4-0.5-0.8-1.1-1.3-1.6c-0.1-0.1-0.1-0.2-0.2-0.3c0.3-0.9,0.6-1.8,0.8-2.7c0.1,0,0.2-0.1,0.3-0.1
	c1.4-0.4,2.9-1,2.9-1s0.1-0.4,0.2-1c0.1-0.6,0.3-1.4,0.4-2.3c0-0.3,0.1-0.7,0.1-1c0.1-0.5,0.1-0.9,0.1-1.3c0.1-0.6,0.1-1,0.1-1
	s-0.3-0.2-0.8-0.6c-0.5-0.3-1.1-0.8-1.7-1.2c-0.1-0.1-0.2-0.1-0.3-0.2c0-0.5,0-0.9,0-1.4s0-0.9,0-1.4c0.1-0.1,0.2-0.1,0.3-0.2
	C216.8,328.2,217.5,327.8,217.9,327.5 M171.8,355c-7.4,0-14-3.2-18.6-8.4c-0.3-0.4-0.7-0.8-1-1.2c-3.3-4.2-5.3-9.5-5.3-15.3
	c0-5.4,1.7-10.3,4.6-14.4c0.5-0.7,1.1-1.4,1.7-2.1c4.5-5.1,11.2-8.4,18.6-8.4c13.7,0,24.8,11.1,24.8,24.8
	C196.6,343.9,185.5,355,171.8,355"/>
<path class="st1" d="M171.8,322.7c-4.2,0-7.6,3.4-7.6,7.6s3.4,7.6,7.6,7.6c4.2,0,7.5-3.4,7.5-7.6S176,322.7,171.8,322.7"/>
<path class="st1" d="M162,326.9c0-0.7-0.6-1.3-1.2-1.3c-0.7,0-1.2,0.6-1.2,1.3c0,0.7,0.6,1.3,1.3,1.3
	C161.5,328.2,162,327.6,162,326.9"/>
<path class="st1" d="M175.1,320.7c0.7,0,1.3-0.6,1.3-1.3c0-0.7-0.6-1.3-1.3-1.3s-1.3,0.6-1.3,1.3
	C173.9,320.2,174.4,320.7,175.1,320.7"/>
<path class="st1" d="M182.7,325.9c0.5-0.5,0.5-1.3,0-1.8s-1.3-0.5-1.8,0s-0.5,1.3,0,1.8C181.4,326.3,182.2,326.4,182.7,325.9"/>
<path class="st1" d="M182.6,332.3c-0.7,0-1.2,0.6-1.2,1.2c0,0.7,0.6,1.3,1.2,1.3c0.7,0,1.3-0.6,1.3-1.3
	C183.8,332.9,183.3,332.3,182.6,332.3"/>
<path class="st1" d="M176.2,339.3c-0.5,0.5-0.5,1.3,0,1.8s1.3,0.5,1.8,0s0.5-1.3,0-1.8C177.4,338.8,176.7,338.8,176.2,339.3"/>
<path class="st1" d="M168.4,339.8c-0.7,0-1.2,0.6-1.2,1.3c0,0.7,0.6,1.3,1.2,1.3c0.7,0,1.2-0.6,1.2-1.3
	C169.7,340.3,169.1,339.8,168.4,339.8"/>
<path class="st1" d="M160.9,334.6c-0.5,0.5-0.5,1.3,0,1.8s1.3,0.5,1.8,0s0.5-1.3,0-1.8S161.4,334.1,160.9,334.6"/>
<path class="st1" d="M167.4,321.1c0.5-0.5,0.5-1.3,0-1.8s-1.3-0.5-1.8,0s-0.5,1.3,0,1.8C166.1,321.6,166.9,321.6,167.4,321.1"/>
<path class="st0" d="M398.4,328.9c0.4-0.3,0.7-0.5,0.7-0.5s0-0.4-0.1-1c0-0.6-0.2-1.4-0.2-2.1c-0.1-0.8-0.3-1.5-0.4-2.1
	s-0.2-1-0.2-1s-1.3-0.5-2.7-0.9c-0.1,0-0.2-0.1-0.3-0.1c-0.2-0.8-0.5-1.7-0.7-2.5c0.1-0.1,0.1-0.2,0.2-0.2c0.5-0.5,0.9-1.1,1.2-1.5
	c0.3-0.4,0.5-0.7,0.5-0.7s-0.1-0.4-0.4-0.9c-0.1-0.3-0.2-0.6-0.4-0.9c-0.2-0.3-0.3-0.7-0.5-1c-0.3-0.7-0.7-1.4-0.9-1.9
	c-0.3-0.5-0.5-0.9-0.5-0.9s-1.4-0.1-2.8-0.1h-0.3c-0.5-0.8-0.9-1.5-1.4-2.2c0-0.1,0.1-0.2,0.1-0.3c0.6-1.3,1.1-2.6,1.1-2.6
	s-0.2-0.3-0.6-0.8c-0.2-0.2-0.4-0.5-0.6-0.8s-0.5-0.6-0.7-0.9c-0.3-0.3-0.5-0.6-0.8-0.9c-0.2-0.3-0.5-0.5-0.7-0.7
	c-0.4-0.4-0.7-0.7-0.7-0.7s-1.4,0.3-2.8,0.7c-0.1,0-0.2,0.1-0.3,0.1c-0.6-0.6-1.3-1.2-2-1.7c0-0.1,0-0.2,0-0.3
	c0.2-1.4,0.3-2.8,0.3-2.8s-0.3-0.2-0.8-0.6c-0.5-0.3-1.1-0.8-1.8-1.2c-0.3-0.2-0.7-0.4-1-0.6s-0.6-0.4-0.9-0.5
	c-0.5-0.3-0.8-0.5-0.8-0.5s-0.3,0.2-0.8,0.4c-0.5,0.3-1.1,0.6-1.7,1c-0.1,0.1-0.2,0.1-0.3,0.2c-0.8-0.4-1.6-0.8-2.4-1.1
	c0-0.1,0-0.2,0-0.3c-0.2-1.4-0.5-2.8-0.5-2.8s-0.1,0-0.2-0.1c-0.2-0.1-0.4-0.1-0.7-0.2c-0.6-0.2-1.3-0.5-2-0.7
	c-0.8-0.2-1.5-0.4-2.1-0.6c-0.6-0.1-1-0.2-1-0.2s-0.3,0.3-0.6,0.6c-0.4,0.4-0.9,0.9-1.3,1.4c-0.1,0.1-0.1,0.2-0.2,0.2
	c-0.9-0.1-1.7-0.3-2.6-0.4c0-0.1-0.1-0.2-0.1-0.3c-0.6-1.3-1.3-2.5-1.3-2.5s-0.4,0-1-0.1c-0.6,0-1.4,0-2.1-0.1c-0.8,0-1.6,0-2.2,0.1
	c-0.6,0-1,0.1-1,0.1s-0.7,1.3-1.3,2.5c0,0.1-0.1,0.2-0.1,0.3c-0.9,0.1-1.7,0.2-2.6,0.4c-0.1-0.1-0.1-0.2-0.2-0.2
	c-0.5-0.5-1-1.1-1.3-1.4c-0.4-0.4-0.6-0.6-0.6-0.6s-0.4,0.1-0.9,0.2c-0.6,0.1-1.3,0.3-2.1,0.6c-0.8,0.2-1.5,0.5-2.1,0.7
	c-0.3,0.1-0.5,0.2-0.7,0.2c-0.2,0.1-0.3,0.1-0.3,0.1s-0.3,1.4-0.5,2.8c0,0.1,0,0.2,0,0.3c-0.8,0.3-1.6,0.7-2.4,1.1
	c-0.1-0.1-0.2-0.1-0.3-0.2c-0.6-0.4-1.2-0.7-1.7-1s-0.8-0.4-0.8-0.4s-0.3,0.2-0.9,0.5c-0.2,0.2-0.5,0.3-0.9,0.5
	c-0.3,0.2-0.6,0.4-1,0.6c-0.7,0.4-1.3,0.9-1.8,1.2c-0.5,0.3-0.8,0.6-0.8,0.6s0.1,1.4,0.3,2.8c0,0.1,0,0.2,0,0.3
	c-0.7,0.6-1.3,1.1-2,1.7c-0.1,0-0.2-0.1-0.3-0.1c-1.4-0.4-2.8-0.7-2.8-0.7s-0.3,0.3-0.7,0.7c-0.2,0.2-0.4,0.5-0.7,0.7
	c-0.2,0.3-0.5,0.6-0.8,0.9s-0.5,0.6-0.7,0.9c-0.1,0.1-0.1,0.1-0.2,0.2c-0.2,0.2-0.3,0.4-0.5,0.6c-0.4,0.5-0.6,0.8-0.6,0.8
	s0.5,1.4,1.1,2.6c0,0.1,0.1,0.2,0.1,0.3c0,0.1-0.1,0.1-0.1,0.2c-0.5,0.7-0.9,1.3-1.3,2h-0.3c-1.4,0-2.8,0.1-2.8,0.1
	s-0.2,0.3-0.5,0.9c-0.3,0.5-0.6,1.2-0.9,1.9c-0.2,0.4-0.3,0.7-0.5,1c-0.1,0.3-0.3,0.7-0.4,0.9c-0.2,0.5-0.4,0.9-0.4,0.9
	s0.2,0.3,0.5,0.7c0.3,0.4,0.8,1,1.2,1.5c0.1,0.1,0.1,0.2,0.2,0.2c-0.3,0.8-0.5,1.7-0.8,2.5c-0.1,0-0.2,0.1-0.3,0.1
	c-1.3,0.4-2.7,0.9-2.7,0.9s-0.1,0.4-0.2,1s-0.3,1.3-0.3,2.1c-0.1,0.8-0.2,1.5-0.3,2.1c0,0.6-0.1,1-0.1,1s0.3,0.2,0.7,0.5
	c0.4,0.3,1,0.7,1.6,1.1c0.1,0.1,0.2,0.1,0.3,0.2c0,0.4,0,0.9,0,1.3s0,0.9,0,1.3c-0.1,0.1-0.2,0.1-0.3,0.2c-0.6,0.4-1.2,0.8-1.6,1.1
	c-0.4,0.3-0.7,0.5-0.7,0.5s0,0.4,0.1,1c0,0.1,0,0.2,0,0.3c0.1,0.5,0.1,1.2,0.2,1.9c0.1,0.8,0.3,1.5,0.3,2.1c0.1,0.6,0.2,1,0.2,1
	s1.4,0.5,2.7,0.9c0.1,0,0.2,0.1,0.3,0.1c0.2,0.9,0.5,1.7,0.8,2.5c-0.1,0.1-0.1,0.2-0.2,0.2c-0.4,0.5-0.9,1.1-1.2,1.5
	c-0.3,0.4-0.5,0.7-0.5,0.7s0.1,0.4,0.4,0.9c0.1,0.3,0.2,0.6,0.4,0.9c0.2,0.3,0.3,0.7,0.5,1c0.3,0.7,0.7,1.4,0.9,1.9
	c0.3,0.5,0.5,0.9,0.5,0.9s1.4,0.1,2.8,0.1c0.1,0,0.2,0,0.3,0c0.5,0.7,0.9,1.5,1.4,2.2c0,0.1-0.1,0.2-0.1,0.3
	c-0.6,1.3-1.1,2.6-1.1,2.6s0.2,0.3,0.6,0.8c0.2,0.2,0.4,0.5,0.6,0.8s0.5,0.6,0.7,0.9c0.3,0.3,0.5,0.6,0.8,0.9s0.5,0.5,0.7,0.7
	c0.4,0.4,0.7,0.7,0.7,0.7s1.4-0.3,2.8-0.7c0.1,0,0.2-0.1,0.3-0.1c0.6,0.6,1.3,1.2,2,1.7c0,0.1,0,0.2,0,0.3c-0.2,1.4-0.3,2.8-0.3,2.8
	s0.3,0.2,0.8,0.6c0.5,0.3,1.1,0.8,1.8,1.2c0.3,0.2,0.7,0.4,1,0.6s0.6,0.4,0.9,0.5c0.5,0.3,0.9,0.5,0.9,0.5s0.3-0.2,0.8-0.4
	c0.5-0.3,1.1-0.6,1.7-1c0.1-0.1,0.2-0.1,0.3-0.2c0.2,0.1,0.3,0.2,0.5,0.2c0.6,0.3,1.3,0.6,1.9,0.9c0,0.1,0,0.2,0,0.3
	c0.2,1.4,0.5,2.8,0.5,2.8s0.1,0,0.3,0.1c0.2,0.1,0.4,0.1,0.7,0.2c0.6,0.2,1.3,0.5,2.1,0.7c0.7,0.2,1.5,0.4,2.1,0.6
	c0.6,0.1,0.9,0.2,0.9,0.2s0.3-0.2,0.6-0.6c0.4-0.4,0.9-0.9,1.3-1.4c0.1-0.1,0.1-0.2,0.2-0.2c0.9,0.2,1.7,0.3,2.6,0.4
	c0,0.1,0.1,0.2,0.1,0.3c0.6,1.3,1.3,2.5,1.3,2.5s0.4,0,1,0.1c0.6,0,1.4,0,2.2,0.1c0.8,0,1.6,0,2.1-0.1c0.6,0,1-0.1,1-0.1
	s0.7-1.3,1.3-2.5c0.1-0.1,0.1-0.2,0.1-0.3c0.9-0.1,1.7-0.2,2.6-0.4c0.1,0.1,0.1,0.2,0.2,0.2c0.5,0.5,1,1,1.3,1.4
	c0.4,0.4,0.6,0.6,0.6,0.6s0.4-0.1,1-0.2s1.3-0.3,2.1-0.6c0.8-0.2,1.5-0.5,2-0.7c0.3-0.1,0.5-0.2,0.7-0.2c0.2-0.1,0.2-0.1,0.2-0.1
	s0.3-1.4,0.5-2.8c0-0.1,0-0.2,0-0.3c0.8-0.3,1.6-0.7,2.4-1.1c0.1,0.1,0.2,0.1,0.3,0.2c0.6,0.4,1.2,0.7,1.7,1s0.8,0.4,0.8,0.4
	s0.3-0.2,0.8-0.5c0.3-0.1,0.6-0.3,0.9-0.5s0.6-0.4,1-0.6c0.7-0.4,1.3-0.9,1.8-1.2c0.5-0.3,0.8-0.6,0.8-0.6s-0.1-1.4-0.3-2.8
	c0-0.1,0-0.2,0-0.3c0.7-0.5,1.3-1.1,2-1.7c0.1,0,0.2,0.1,0.3,0.1c1.4,0.4,2.8,0.7,2.8,0.7s0.3-0.3,0.7-0.7c0.2-0.2,0.4-0.5,0.7-0.7
	c0.3-0.3,0.5-0.6,0.8-0.9c0.2-0.3,0.5-0.6,0.7-0.9s0.4-0.6,0.6-0.8c0.4-0.5,0.6-0.8,0.6-0.8s-0.5-1.4-1.1-2.6c0-0.1-0.1-0.2-0.1-0.3
	c0.5-0.7,1-1.4,1.4-2.2c0.1,0,0.2,0,0.3,0c1.4,0,2.8-0.1,2.8-0.1s0.2-0.3,0.5-0.9c0.3-0.5,0.6-1.2,0.9-1.9c0.2-0.4,0.3-0.7,0.5-1
	c0.1-0.3,0.3-0.7,0.4-0.9c0.2-0.5,0.4-0.9,0.4-0.9s-0.2-0.3-0.5-0.7c-0.3-0.4-0.8-1-1.2-1.5c-0.1-0.1-0.1-0.2-0.2-0.2
	c0.3-0.8,0.5-1.7,0.7-2.5c0.1,0,0.2-0.1,0.3-0.1c1.3-0.4,2.7-0.9,2.7-0.9s0.1-0.4,0.2-1s0.3-1.3,0.4-2.1c0.1-0.8,0.2-1.6,0.2-2.1
	c0-0.6,0.1-1,0.1-1s-0.3-0.2-0.7-0.5c-0.4-0.3-1-0.7-1.6-1.1c-0.1-0.1-0.2-0.1-0.3-0.2c0-0.4,0-0.9,0-1.3s0-0.9,0-1.3
	c0.1-0.1,0.2-0.1,0.3-0.2C397.4,329.7,398,329.3,398.4,328.9 M337.7,346.3c-2.4-2.9-4.1-6.5-4.9-10.4c-0.3-1.4-0.4-2.9-0.4-4.4
	c0-12.7,10.3-23.1,23.1-23.1c12.7,0,23.1,10.3,23.1,23.1c0,12.7-10.3,23.1-23.1,23.1C348.3,354.6,341.9,351.4,337.7,346.3"/>
<path class="st1" d="M355.5,338.6c3.9,0,7-3.2,7-7c0-3.9-3.2-7-7-7c-3.9,0-7,3.1-7,7C348.4,335.4,351.6,338.6,355.5,338.6"/>
<path class="st1" d="M345.2,329.6c0.6,0,1.2-0.5,1.2-1.2c0-0.6-0.5-1.2-1.2-1.2c-0.6,0-1.2,0.5-1.2,1.2
	C344.1,329.1,344.6,329.6,345.2,329.6"/>
<path class="st1" d="M358.6,322.7c0.6,0,1.2-0.5,1.2-1.2c0-0.6-0.5-1.2-1.2-1.2c-0.6,0-1.2,0.5-1.2,1.2S357.9,322.7,358.6,322.7"/>
<path class="st1" d="M365.6,327.5c0.5-0.5,0.5-1.2,0-1.6c-0.5-0.5-1.2-0.5-1.6,0c-0.5,0.5-0.5,1.2,0,1.6
	C364.4,327.9,365.1,327.9,365.6,327.5"/>
<path class="st1" d="M364.3,334.6c0,0.6,0.5,1.2,1.2,1.2c0.6,0,1.2-0.5,1.2-1.2c0-0.6-0.5-1.2-1.2-1.2
	C364.9,333.5,364.3,334,364.3,334.6"/>
<path class="st1" d="M359.5,340c-0.4,0.5-0.4,1.2,0,1.6c0.5,0.4,1.2,0.4,1.6,0c0.5-0.5,0.5-1.2,0-1.6
	C360.7,339.6,360,339.6,359.5,340"/>
<path class="st1" d="M352.4,340.4c-0.6,0-1.2,0.5-1.2,1.2c0,0.6,0.5,1.2,1.2,1.2c0.6,0,1.2-0.5,1.2-1.2
	C353.5,340.9,353,340.4,352.4,340.4"/>
<path class="st1" d="M345.4,335.6c-0.5,0.5-0.5,1.2,0,1.6c0.5,0.5,1.2,0.5,1.6,0c0.5-0.5,0.5-1.2,0-1.6S345.8,335.2,345.4,335.6"/>
<path class="st1" d="M351.4,323.1c0.5-0.4,0.5-1.2,0-1.6c-0.5-0.5-1.2-0.5-1.6,0s-0.5,1.2,0,1.6
	C350.2,323.5,350.9,323.5,351.4,323.1"/>
<path class="st2" d="M128.2,143.8l61.8,15.5l11,12.7c0.4,0.4,2-0.2,4.3-1.7l31.8,36.5c-2.4,3.5-3.9,7.7-4.1,12.4l-10.3,49.1v0.9
	c0,9.5,9.2,20.4,13.2,24.7c5,5.4,14.8,14.4,23.9,14.4h12.1c13.1,0,23.9-10.7,24.8-24.1c0.2,0,0.4,0,0.6,0c4.3,0,12.3-2,17.8-15.5
	c3.1-7.7,4.8-17.7,4.8-28.2s-1.7-20.5-4.8-28.2c-5.5-13.5-13.5-15.5-17.8-15.5c-3.6,0-6.7,1.3-9.2,3.8c-0.1,0.1-0.3,0.3-0.4,0.4
	c-4.3-3.7-9.8-6-15.8-6h-12.1c-0.9,0-1.8,0.1-2.7,0.2l-34.7-39.8c1.5-1.8,2.2-3.1,1.8-3.5l-12.5-14.4c-0.5-0.5-2.5,0.5-5.4,2.4
	l-77.9-19.5c-0.5-0.1-0.9-0.2-1.4-0.2c-0.9-2.1-1.9-3.5-3.1-3.9V98.6h3.5c1.5,0,2.8-0.2,2.8-0.5V73.8c0-0.3-1.2-0.5-2.8-0.5h-5.5
	h-9.7h-0.9c-0.1,0-0.3,0-0.4,0.1c-0.9,0.1-1.5,0.3-1.5,0.5v1.6v22.7v10.7H108v14.6c0,0.2-0.2,0.4-0.4,0.4h-1.1h-0.7h-0.6
	c-0.2,0-0.4-0.2-0.4-0.4V106h-2.6c-0.4,0-0.7,0.6-0.7,1.4v56L51.3,165c-0.6,0-1.1,0.1-1.1,0.3l0,0c0,0.2,0.5,0.3,1.1,0.3h50.2v2.8
	L42.7,170c-0.7,0-1.3,0.1-1.3,0.3l0,0c0,0.2,0.6,0.3,1.3,0.3h58.8v2c0,0.8,0.3,1.4,0.7,1.4h3.6c0.4,0,0.7-0.6,0.7-1.4v-3.1h3.2v2.5
	c0,1.2,0.9,2.1,1.9,2.1h10.5c1.1,0,1.9-0.9,1.9-2.1v-21.2C125.8,150.3,127.3,147.7,128.2,143.8 M271.9,203.1c4.7,0,8.9,2.1,11.9,5.4
	c1.3,1.4,2.3,3,3.1,4.8c1,2.3,1.6,4.8,1.6,7.4v53.1v6.9v1.7c0,9.7-7.4,17.6-16.6,17.6h-12.1c-9.2,0-28.9-21.1-28.9-30.8l10.2-49.1
	c0-2.4,0.6-4.7,1.6-6.7c3.1-6.2,10.2-10.3,17.1-10.3h4.4H271.9z M297.3,204.9c8,0,14.4,15.9,14.4,35.5s-6.4,35.5-14.4,35.5
	c-0.2,0-0.4,0-0.6,0c-7.3-0.8-6.1-16.4-6.1-35.5c0-15-0.7-27.9,2.5-33.1C294.1,205.7,295.5,204.9,297.3,204.9 M120.1,75.7
	c0-0.2,0.3-0.5,0.7-0.5h3.3h0.5c0.4,0,0.7,0.2,0.7,0.5v20.6c0,0.2-0.3,0.5-0.7,0.5h-0.4h-3.3c-0.4,0-0.7-0.2-0.7-0.5L120.1,75.7
	L120.1,75.7z M106.5,124.8h3.2v10.5h-3.2V124.8z"/>
</svg>
