<?xml version="1.0" encoding="utf-8"?>
<!-- Generator: Adobe Illustrator 23.0.2, SVG Export Plug-In . SVG Version: 6.00 Build 0)  -->
<svg version="1.1" id="Capa_1" xmlns="http://www.w3.org/2000/svg" xmlns:xlink="http://www.w3.org/1999/xlink" x="0px" y="0px"
	 viewBox="0 0 612 612" style="enable-background:new 0 0 612 612;" xml:space="preserve">
<style type="text/css">
	.st0{fill:#002A74;}
</style>
<g>
	<path class="st0" d="M61.2,411.2c-31.4,0-56.8,25.4-56.8,56.8c0,31.4,25.4,56.8,56.8,56.8s56.8-25.4,56.8-56.8
		C118.1,436.6,92.6,411.2,61.2,411.2z M61.2,496.4c-15.7,0-28.4-12.7-28.4-28.4s12.7-28.4,28.4-28.4s28.4,12.7,28.4,28.4
		S76.9,496.4,61.2,496.4z M498.3,356.2L421.1,404c-1.4-3.3-2.2-7-2.2-10.8V318c0-3.5,0.7-6.8,1.9-9.9L498.3,356.2z M430.6,295.6
		c4.4-3.1,9.7-4.9,15.5-4.9h138.6c4.9,0,9.5,1.4,13.4,3.7l-84.7,52.5L430.6,295.6z M528.5,356.2l80.7-50c1.7,3.6,2.8,7.5,2.8,11.8
		v75.3c0,4.6-1.2,8.8-3.2,12.6L528.5,356.2z M404.9,434.3h144.6v28.9H410.9c-1.6-24.1-15.2-44.9-34.9-56.5v-0.1
		c0.1,0.1,0.2,0.1,0.4,0.2l-0.4-0.7v-290h28.9L404.9,434.3L404.9,434.3z M597.2,417.4c-3.8,1.9-7.9,3.1-12.5,3.1H446.1
		c-5.4,0-10.4-1.6-14.6-4.3l81.9-50.7L597.2,417.4z M498.3,210.9l-77.3,47.8c-1.4-3.3-2.2-7-2.2-10.8v-75.3c0-3.5,0.7-6.8,1.9-9.9
		L498.3,210.9z M430.6,150.2c4.4-3.1,9.7-4.9,15.5-4.9h138.6c4.9,0,9.5,1.4,13.4,3.7l-84.7,52.5L430.6,150.2z M528.5,210.9l80.7-50
		c1.7,3.6,2.8,7.5,2.8,11.8v75.3c0,4.6-1.2,8.8-3.2,12.6L528.5,210.9z M597.2,272c-3.8,1.9-7.9,3.1-12.5,3.1H446.1
		c-5.4,0-10.4-1.6-14.6-4.3l81.9-50.7L597.2,272z M226.4,110.9C219,96.4,204,87.2,187.7,87.2H94c-16,0-28.9,12.9-28.9,28.9V268H36.2
		C16.2,268,0,284.1,0,304.1v127.5c12.4-20.9,35.2-34.9,61.2-34.9c37.7,0,68.6,29.4,71.2,66.5h136.4c2.5-37.1,33.4-66.5,71.2-66.5
		c13.2,0,25.5,3.6,36.1,9.9v-0.5L226.4,110.9z M281.1,326.1H117.6c-4.1,0-7.2-3.3-7.2-7.2V139.1c0-4,3.2-7.2,7.2-7.2h71.2
		c2.7,0,5.2,1.5,6.4,3.9l92.3,179.8C290,320.4,286.6,326.1,281.1,326.1z M339.9,411.2c-31.4,0-56.8,25.4-56.8,56.8
		c0,31.4,25.4,56.8,56.8,56.8s56.8-25.4,56.8-56.8C396.7,436.6,371.3,411.2,339.9,411.2z M339.9,496.4c-15.7,0-28.4-12.7-28.4-28.4
		s12.7-28.4,28.4-28.4s28.4,12.7,28.4,28.4S355.6,496.4,339.9,496.4z"/>
</g>
</svg>
