<?xml version="1.0"?>
<svg xmlns="http://www.w3.org/2000/svg" id="Layer_1" data-name="Layer 1" viewBox="0 0 512 512" width="512" height="512"><title>Car Truck towing</title><path d="M23,332H37.54c1.025-8,4.012-16,8.7-22H23Z"/><path d="M364,162v98h56V241.38c-12-2.961-21-13.572-21-26.175V162Z"/><path d="M413,162v53.205A13.064,13.064,0,0,0,426.257,228h29.732a47.138,47.138,0,0,1,8.011.9V223.61a3.011,3.011,0,0,0-.179-1.021c-.081-.224-.151-.676-.209-.906L448.661,162Z"/><path d="M455.989,242H434v25.324c0,3.866-3.5,6.676-7.367,6.676H364v29c0,.046.007.09.007.136s-.007.09-.007.135V332h14.47a46.312,46.312,0,0,1,91.827,0H489v-56.8A33.222,33.222,0,0,0,455.989,242Z"/><path d="M107.029,315.589c-.048-.048-.094-.1-.14-.145a32.013,32.013,0,0,0-8-6.151l-.021-.011a32.379,32.379,0,0,0-30.827,0,32.023,32.023,0,0,0-8.01,6.161c-.045.048-.092.1-.139.144l-.132.132A32.265,32.265,0,0,0,51.133,337.7c0,.229,0,.462.006.691a32.328,32.328,0,0,0,64.639.062c.01-.291.008-.524.008-.753a32.224,32.224,0,0,0-8.623-21.977Z"/><path d="M424.382,305.376A32.36,32.36,0,0,0,392.059,337.7c0,.236,0,.482,0,.719a32.325,32.325,0,0,0,64.633.041c.007-.264.006-.517.006-.76,0-.809-.029-1.607-.086-2.369A32.426,32.426,0,0,0,424.382,305.376Z"/><path d="M125.778,318.7a57.764,57.764,0,0,1,5.089-8.7h-10.19A56.969,56.969,0,0,1,125.778,318.7Z"/><path d="M183.493,309.294l-.021-.012a32.349,32.349,0,0,0-15.4-3.9,31.919,31.919,0,0,0-15.4,3.9l-.036.02a32.318,32.318,0,0,0-16.885,28.4c0,.221,0,.447.006.668a32.364,32.364,0,0,0,32.121,31.653C185.267,370.021,200,355.9,200,338.53v-.83c0-.869.17-1.653.117-2.4A31.97,31.97,0,0,0,183.493,309.294Z"/><path d="M214,332H350V310H205.334A46.634,46.634,0,0,1,214,332Z"/><path d="M98,142H77.833a6.3,6.3,0,0,0-4.1,1.507L36.673,175.219,98,175.037Z"/><path d="M45.405,234.417l.161-.076A20.814,20.814,0,0,0,57.809,238h.481c4.3-13,17.042-23.389,32.053-23.389C106,214.611,119.189,226,122.905,240H162V188.853l-129,.371v21.231A29.826,29.826,0,0,0,45.405,234.417Z"/><path d="M70.733,248.369a19.61,19.61,0,1,0,19.61-19.609A19.632,19.632,0,0,0,70.733,248.369Z"/><path d="M194.3,145.919a121.055,121.055,0,0,0-18.3-3.372v32.266l75.244-.218a180,180,0,0,0-38.418-22.36A141.617,141.617,0,0,0,194.3,145.919Z"/><path d="M248.691,248.035A19.609,19.609,0,1,0,268.3,228.427,19.631,19.631,0,0,0,248.691,248.035Z"/><path d="M300.94,240H329V218.1a22.091,22.091,0,0,0-17.887-21.5l-41.4-8.065-93.71.271V240h59.66a33.6,33.6,0,0,1,65.28,0Z"/><polygon points="162 174.853 162 142 112 142 112 174.996 162 174.853"/><rect x="364" y="141" width="92" height="14"/></svg>
