<?xml version="1.0" encoding="utf-8"?>
<!-- Generator: Adobe Illustrator 23.0.2, SVG Export Plug-In . SVG Version: 6.00 Build 0)  -->
<svg version="1.1" id="Layer_1" xmlns="http://www.w3.org/2000/svg" xmlns:xlink="http://www.w3.org/1999/xlink" x="0px" y="0px"
	 viewBox="0 0 612 612" style="enable-background:new 0 0 612 612;" xml:space="preserve">
<style type="text/css">
	.st0{fill:#6AAB2E;}
	.st1{fill:#2B347E;}
</style>
<title>Car Truck towing</title>
<g>
	<path class="st0" d="M0,476.1h19c1.3-10.5,5.3-21,11.4-28.9H0V476.1z"/>
	<path class="st0" d="M447.8,252.8v128.7h73.5v-24.4c-15.8-3.9-27.6-17.9-27.6-34.4v-69.9H447.8z"/>
	<path class="st0" d="M512.2,252.8v69.9c0.1,9.5,8,16.9,17.5,16.8h39c3.5,0.1,7.1,0.5,10.5,1.2v-7c0-0.4-0.1-0.9-0.3-1.3
		c-0.1-0.3-0.3-0.9-0.3-1.2l-19.7-78.4C558.9,252.8,512.2,252.8,512.2,252.8z"/>
	<path class="st0" d="M568.7,357.9h-28.9v33.2c0,5.1-4.6,8.8-9.7,8.8h-82.2V438v0.1v0.1v37.8h19c4.3-33.4,34.9-56.7,68.3-52.4
		c27.3,3.5,48.7,25.1,52.4,52.4H612v-74.6C612,377.4,592.6,358,568.7,357.9z"/>
	<path class="st0" d="M135,458.6c1.8-3.9,4.1-7.9,6.7-11.4h-13.4C130.8,450.7,133,454.7,135,458.6z"/>
	<path class="st1" d="M232.6,480.4c-0.9-14.3-9.2-27.3-21.8-34.1l0,0c-6.2-3.4-13.1-5.1-20.2-5.1c-7.1,0-14.1,1.7-20.2,5.1l0,0
		c-13.7,7.5-22.2,21.8-22.2,37.3c0,0.3,0,0.5,0,0.9c0.5,23,19.2,41.4,42.2,41.6c22.9,0,42.2-18.5,42.2-41.4v-1.1
		C232.5,482.4,232.7,481.3,232.6,480.4z M211.8,485v0.5c0,11.6-9.8,21-21.5,21c-11.7-0.1-21.3-9.5-21.5-21.1c0-0.1,0-0.3,0-0.4
		c0-7.9,4.3-15.2,11.3-19l0,0c3.2-1.7,6.7-2.6,10.2-2.6c3.5,0,7.1,0.9,10.2,2.6l0,0c6.4,3.5,10.6,10.1,11.2,17.3
		C212,483.9,211.8,484.5,211.8,485z"/>
	<path class="st1" d="M110.6,454.7l-0.1-0.1l-0.1-0.1c-3-3.3-6.6-5.9-10.5-8.1l0,0c-12.6-6.8-27.8-6.8-40.4,0
		c-3.9,2.1-7.5,4.9-10.5,8.1l-0.1,0.1l-0.1,0.1c-7.2,7.9-11.3,18.1-11.3,28.9c0,0.3,0,0.7,0,0.9c0.5,23.4,20,42,43.3,41.5
		c22.7-0.5,41-18.8,41.5-41.4c0-0.4,0-0.7,0-1.1C121.9,472.8,117.8,462.5,110.6,454.7z M100.9,485v0.5c0,11.6-9.8,21-21.5,21
		c-11.7-0.1-21.3-9.5-21.5-21.1c0-0.1,0-0.3,0-0.4c0-7.9,4.3-15.2,11.3-19l0,0c3.2-1.7,6.7-2.6,10.2-2.6c3.5,0,7.1,0.9,10.2,2.6l0,0
		c6.4,3.5,10.6,10.1,11.2,17.3C101,483.9,100.9,484.5,100.9,485z"/>
	<path class="st1" d="M569.4,480.4c-1.7-22.2-20.1-39.3-42.3-39.4c-23.4,0-42.4,19-42.4,42.4c0,0.3,0,0.7,0,0.9
		c0.5,23.4,20,42,43.3,41.5c22.7-0.5,41-18.8,41.5-41.5c0-0.4,0-0.7,0-1.1C569.6,482.5,569.6,481.4,569.4,480.4z M548.6,485v0.5
		c0,11.6-9.8,21-21.5,21c-11.7-0.1-21.3-9.5-21.5-21.1c0-0.1,0-0.3,0-0.4c0-7.9,4.3-15.2,11.3-19l0,0c3.2-1.7,6.7-2.6,10.2-2.6
		s7.1,0.9,10.2,2.6l0,0c6.4,3.5,10.6,10.1,11.2,17.3C548.7,483.9,548.6,484.5,548.6,485z"/>
	<path class="st0" d="M250.8,476.1h178.6v-28.9h-190C245.7,455.7,249.5,465.6,250.8,476.1z"/>
	<rect x="447.8" y="225.2" class="st0" width="120.8" height="18.4"/>
</g>
</svg>
