<?xml version="1.0" encoding="utf-8"?>
<!-- Generator: Adobe Illustrator 23.0.2, SVG Export Plug-In . SVG Version: 6.00 Build 0)  -->
<svg version="1.1" id="Capa_1" xmlns="http://www.w3.org/2000/svg" xmlns:xlink="http://www.w3.org/1999/xlink" x="0px" y="0px"
	 viewBox="0 0 97.8 76.3" style="enable-background:new 0 0 97.8 76.3;" xml:space="preserve">
<style type="text/css">
	.st0{fill:#79B51D;}
	.st1{fill:#FFFFFF;}
</style>
<g>
	<path class="st0" d="M84.6,75.5H-3.4c-6.5,0-11.8-5.3-11.8-11.8V12.6c0-6.5,5.3-11.8,11.8-11.8h88.1c6.5,0,11.8,5.3,11.8,11.8v51.2
		C96.4,70.2,91.1,75.5,84.6,75.5z"/>
	<g>
		<g>
			<path class="st1" d="M75.2,8.3H15.9c-5.3,0-9.6,4.3-9.6,9.6v40.5c0,5.3,4.3,9.6,9.6,9.6h59.2c5.3,0,9.6-4.3,9.6-9.6V17.9
				C84.8,12.6,80.5,8.3,75.2,8.3z M80.4,58.4c0,2.9-2.3,5.2-5.2,5.2H15.9c-2.9,0-5.2-2.3-5.2-5.2V17.9c0-2.9,2.3-5.2,5.2-5.2h59.2
				c2.9,0,5.2,2.3,5.2,5.2L80.4,58.4L80.4,58.4z"/>
			<path class="st1" d="M55.8,37.6L75,20.4c0.9-0.8,1-2.2,0.2-3.1c-0.8-0.9-2.2-1-3.1-0.2L45.6,40.9l-5.2-4.6c0,0,0,0,0,0
				c-0.1-0.1-0.2-0.2-0.4-0.3L19,17.2c-0.9-0.8-2.3-0.7-3.1,0.2c-0.8,0.9-0.7,2.3,0.2,3.1l19.4,17.3L16.2,55.9
				c-0.9,0.8-0.9,2.2-0.1,3.1c0.4,0.5,1,0.7,1.6,0.7c0.5,0,1.1-0.2,1.5-0.6l19.6-18.4l5.3,4.8c0.4,0.4,0.9,0.6,1.5,0.6
				c0.5,0,1.1-0.2,1.5-0.6l5.5-4.9L72,59.1c0.4,0.4,1,0.6,1.5,0.6c0.6,0,1.2-0.2,1.6-0.7c0.8-0.9,0.8-2.3-0.1-3.1L55.8,37.6z"/>
		</g>
	</g>
</g>
</svg>
