<?xml version="1.0" encoding="utf-8"?>
<!-- Generator: Adobe Illustrator 23.0.2, SVG Export Plug-In . SVG Version: 6.00 Build 0)  -->
<svg version="1.1" id="Capa_1" xmlns="http://www.w3.org/2000/svg" xmlns:xlink="http://www.w3.org/1999/xlink" x="0px" y="0px"
	 viewBox="0 0 640 640" style="enable-background:new 0 0 640 640;" xml:space="preserve">
<style type="text/css">
	.st0{fill:#79B51D;}
</style>
<g id="surface1">
	<path class="st0" d="M575,379.5V260.5h-51c-4.3-14.8-10.3-29.1-17.7-42.6l36.1-36.1l-84.1-84.1l-36.1,36.1
		c-13.5-7.5-27.8-13.4-42.6-17.7V65H260.5v51c-14.8,4.3-29.1,10.3-42.6,17.7l-36.1-36.1l-84.1,84.2l36.1,36.1
		c-7.5,13.5-13.4,27.8-17.8,42.6H65v119h51c4.3,14.8,10.3,29.1,17.7,42.6l-36.1,36.1l84.2,84.1l36.1-36.1
		c13.5,7.5,27.8,13.4,42.6,17.8v51h119v-51c14.8-4.3,29.1-10.3,42.6-17.7l36.1,36.1l84.1-84.1l-36.1-36.1
		c7.5-13.5,13.4-27.8,17.8-42.6H575z M509.3,368.8c-4.5,17.7-11.6,34.6-21,50.3l-3.4,5.7l33.3,33.3l-60.2,60.2L424.8,485l-5.7,3.4
		c-15.7,9.3-32.7,16.3-50.3,21l-6.4,1.7v47h-84.9v-47l-6.4-1.7c-17.7-4.5-34.6-11.6-50.3-21l-5.7-3.4l-33.3,33.4l-60.2-60.2
		l33.3-33.3l-3.4-5.7c-9.3-15.7-16.3-32.7-21-50.3l-1.7-6.4H82v-85h47l1.7-6.4c4.5-17.7,11.6-34.6,21-50.3l3.4-5.7l-33.4-33.3
		l60.2-60.2l33.3,33.3l5.7-3.4c15.7-9.3,32.7-16.3,50.3-21l6.4-1.7V82h85v47l6.4,1.7c17.7,4.5,34.6,11.6,50.3,21l5.7,3.4l33.3-33.4
		l60.2,60.2L485,215.1l3.4,5.7c9.3,15.7,16.3,32.7,21,50.3l1.7,6.4h47v85h-47L509.3,368.8z"/>
	<path class="st0" d="M320,175.5c-79.8-0.1-144.5,64.6-144.5,144.3c0,56.8,33.2,108.4,85,131.7v0.2l5.3,2.2h0.1l11.7,4.7V458
		c13.8,4.3,28.1,6.5,42.5,6.5c2.9,0,5.7-0.1,8.5-0.2v0.4l9.6-1.2l7.5-0.9v-0.4c78.5-14,130.8-89.1,116.7-167.6
		C450,225.6,390,175.4,320,175.5z M277.5,440.2v-84.1l-2.9-2.6c-28-25-30.4-68-5.3-95.9c12.9-14.4,31.3-22.6,50.7-22.6
		c2.5,0,5,0.2,7.5,0.4L288,275l7.6,52.6l52.6,7.6l39.5-39.5c0.2,2.5,0.4,4.9,0.4,7.4c-0.2,31.7-22,59.1-52.9,66.4l-6.6,1.5v76.4
		C311.2,448.4,293.9,446,277.5,440.2z M345.5,444.9v-60.9c35.3-11.3,59.3-44.1,59.5-81.1c0-9.2-1.4-18.4-4.5-27.2l-4.5-12.8l-54,54
		l-31.6-4.5l-4.5-31.6l54-54l-12.9-4.4c-8.8-2.9-17.9-4.5-27.2-4.5c-46.9,0-84.9,38-85,84.9c0,22.9,9.2,44.7,25.5,60.7v69.2
		c-62.2-32.9-86.1-110-53.2-172.2s110-86.1,172.2-53.2s86.1,110,53.2,172.2C414.9,413.3,382.9,437.3,345.5,444.9L345.5,444.9z"/>
</g>
</svg>
