<?xml version="1.0" encoding="utf-8"?>
<!-- Generator: Adobe Illustrator 23.0.2, SVG Export Plug-In . SVG Version: 6.00 Build 0)  -->
<svg version="1.1" id="Capa_1" xmlns="http://www.w3.org/2000/svg" xmlns:xlink="http://www.w3.org/1999/xlink" x="0px" y="0px"
	 viewBox="0 0 612 612" style="enable-background:new 0 0 612 612;" xml:space="preserve">
<style type="text/css">
	.st0{fill:#79B51D;}
	.st1{fill:#1F325C;}
</style>
<g id="surface1">
	<path class="st0" d="M525.5,357.2V254.8h-43.9c-3.7-12.7-8.9-25-15.2-36.7l31.1-31.1L425,114.6L394,145.7
		c-11.6-6.5-23.9-11.5-36.7-15.2v-44H254.8v43.9c-12.7,3.7-25,8.9-36.7,15.2L187,114.6L114.6,187l31.1,31.1
		c-6.5,11.6-11.5,23.9-15.3,36.7H86.5v102.4h43.9c3.7,12.7,8.9,25,15.2,36.7L114.6,425l72.5,72.4l31.1-31.1
		c11.6,6.5,23.9,11.5,36.7,15.3v43.9h102.4v-43.9c12.7-3.7,25-8.9,36.7-15.2l31.1,31.1l72.4-72.4L466.3,394
		c6.5-11.6,11.5-23.9,15.3-36.7L525.5,357.2L525.5,357.2z M468.9,348c-3.9,15.2-10,29.8-18.1,43.3l-2.9,4.9l28.7,28.7l-51.8,51.8
		L396.2,448l-4.9,2.9c-13.5,8-28.1,14-43.3,18.1l-5.5,1.5V511h-73.1v-40.5l-5.5-1.5c-15.2-3.9-29.8-10-43.3-18.1l-4.9-2.9L187,476.8
		L135.2,425l28.7-28.7l-2.9-4.9c-8-13.5-14-28.1-18.1-43.3l-1.5-5.5h-40.3v-73.2h40.5l1.5-5.5c3.9-15.2,10-29.8,18.1-43.3l2.9-4.9
		L135.3,187l51.8-51.8l28.7,28.7l4.9-2.9c13.5-8,28.1-14,43.3-18.1l5.5-1.5v-40.3h73.2v40.5l5.5,1.5c15.2,3.9,29.8,10,43.3,18.1
		l4.9,2.9l28.7-28.8l51.8,51.8L448,215.7l2.9,4.9c8,13.5,14,28.1,18.1,43.3l1.5,5.5H511v73.2h-40.5L468.9,348z"/>
	<path class="st1" d="M306,181.6c-68.7-0.1-124.4,55.6-124.4,124.2c0,48.9,28.6,93.3,73.2,113.4v0.2l4.6,1.9h0.1l10.1,4v-0.5
		c11.9,3.7,24.2,5.6,36.6,5.6c2.5,0,4.9-0.1,7.3-0.2v0.3l8.3-1l6.5-0.8v-0.3c67.6-12.1,112.6-76.7,100.5-144.3
		C417.9,224.7,366.3,181.5,306,181.6z M269.4,409.5v-72.4l-2.5-2.2c-24.1-21.5-26.2-58.5-4.6-82.5c11.1-12.4,26.9-19.5,43.6-19.5
		c2.2,0,4.3,0.2,6.5,0.3l-34,34.1l6.5,45.3l45.3,6.5l34-34c0.2,2.2,0.3,4.2,0.3,6.4c-0.2,27.3-18.9,50.9-45.5,57.2l-5.7,1.3v65.8
		C298.4,416.5,283.5,414.5,269.4,409.5z M328,413.5v-52.4c30.4-9.7,51-38,51.2-69.8c0-7.9-1.2-15.8-3.9-23.4l-3.9-11l-46.5,46.5
		l-27.2-3.9l-3.9-27.2l46.5-46.5l-11.1-3.8c-7.6-2.5-15.4-3.9-23.4-3.9c-40.4,0-73.1,32.7-73.2,73.1c0,19.7,7.9,38.5,21.9,52.2V403
		c-53.5-28.3-74.1-94.7-45.8-148.2S303.5,180.7,357,209s74.1,94.7,45.8,148.2C387.7,386.3,360.1,407,328,413.5L328,413.5z"/>
</g>
</svg>
