<?xml version="1.0" encoding="utf-8"?>
<!-- Generator: Adobe Illustrator 21.0.0, SVG Export Plug-In . SVG Version: 6.00 Build 0)  -->
<svg version="1.1" id="Capa_1" xmlns="http://www.w3.org/2000/svg" xmlns:xlink="http://www.w3.org/1999/xlink" x="0px" y="0px"
	 viewBox="0 0 479.5 479.5" style="enable-background:new 0 0 479.5 479.5;" xml:space="preserve">
<style type="text/css">
	.st0{fill:#6AAB2E;}
	.st1{fill:#2B347E;}
</style>
<g>
	<g id="iconos_42_">
		<path class="st0" d="M474,438.9v-31.1c0-21.1-12.3-33.5-33.5-33.5H230.2c-28.4,0-43,13.4-43,33.5v40.3c0,20.9,14,31.4,43,31.4
			h210.4C461.7,479.5,474,465.5,474,438.9z M435.8,441.3H225.4v-28.7h210.4V441.3z"/>
		<path class="st1" d="M311.5,154.4v91.5l12.2,32.8h-20.5L103.1,0L59.1,26.6L72.4,50v123.5H58.3l9.5,66.9h4.6v20.2
			c-8.6,3.9-18.2,12.3-18.2,27.4c0,9.8,3.7,17.1,9.2,22c2.8,2.3,9.2,5.6,9.2,5.6c4.2,1.6,8.6,2.5,13,2.5c4.4,0,8.8-1.2,12.8-3.3l0,0
			c2.8-1.3,7.3-6,7.7-6.4c3.8-4.7,6.3-10.9,6.3-18.8c0-5.3-4.3-9.6-9.6-9.6c-5.3,0-9.6,4.3-9.6,9.6c0,3.4-0.9,5.6-2.1,7
			c0,0-1.6,1.8-5.5,2.3c-2.9,0.4-6.8-1.2-6.8-1.2c-3.1-1.4-5.5-4.2-5.5-9.6c0-8.6,8.6-10.7,10.2-11c4.6-0.8,8-4.8,8-9.4v-27.1h10.6
			l13.4-66.9h-14.4v-69.4L215.9,325v11.1h38.3v19.1h143.4v-19.1h57.4V154.4H311.5z M91.5,173.5H82V68l9.6,18V173.5z M99.9,76
			L83.4,44.7l25.7-16.9L99.9,76z M122.2,47.3l18.3,31.8L111,98.2L122.2,47.3z M142.1,148l-17-31.5l27.9-18.1L142.1,148z
			 M164.9,114.5l20.6,30l-30.9,19.8L164.9,114.5z M161.7,187.2l34.6-23.7l-19.7,52.7L161.7,187.2z M209.9,178.2l18.8,25.9l0.1,0.2
			l-39,25.4L209.9,178.2z M212.8,278.1l-16.7-29.4l41.4-29.5L212.8,278.1z M225.8,299l28.3-61l23,31.4L225.8,299z M416.7,250h-66.9
			v-57.4h66.9V250z"/>
	</g>
</g>
</svg>
