<?xml version="1.0" encoding="utf-8"?>
<!-- Generator: Adobe Illustrator 23.0.2, SVG Export Plug-In . SVG Version: 6.00 Build 0)  -->
<svg version="1.1" id="Capa_1" xmlns="http://www.w3.org/2000/svg" xmlns:xlink="http://www.w3.org/1999/xlink" x="0px" y="0px"
	 viewBox="0 0 612 612" style="enable-background:new 0 0 612 612;" xml:space="preserve">
<style type="text/css">
	.st0{fill:#002A74;}
</style>
<g>
	<path class="st0" d="M520.5,385.4c-5.5-27-29.3-46.5-56.9-46.5h-1c-27.6,0-51.4,19.4-56.9,46.5l-46,226.6h206.6L520.5,385.4z
		 M463.2,429.6c-19.2,0-34.8-15.6-34.8-34.8c0-19.2,15.6-34.8,34.8-34.8c19.2,0,34.8,15.6,34.8,34.8
		C498,414,482.4,429.6,463.2,429.6z M480.9,310.2c-5.9-1.2-11.9-1.9-18.2-1.9c-42,0-78.6,29.9-86.9,71l-0.5,2.3L147.4,105.1
		c15.6-10.4,26.3-26.8,29.5-45.4L480.9,310.2z M124.5,167.7V93.9c19.1-6.4,33-24.3,33-45.6c0-26.7-21.6-48.3-48.3-48.3
		S60.9,21.6,60.9,48.3c0,21.3,13.9,39.2,33,45.6v87.3c0,8.5,6.9,15.3,15.3,15.3c18.2,0,33,14.8,33,33c0,18.2-14.8,33-33,33
		c-18.2,0-33-14.8-33-33c0-8.5-6.9-15.3-15.3-15.3s-15.3,6.9-15.3,15.3c0,35.1,28.5,63.6,63.6,63.6c35.1,0,63.6-28.5,63.6-63.6
		C172.8,199.7,152.2,174.6,124.5,167.7z M85,48.3c0-13.3,10.8-24.2,24.2-24.2s24.2,10.8,24.2,24.2s-10.8,24.2-24.2,24.2
		S85,61.7,85,48.3z"/>
</g>
</svg>
