<?xml version="1.0"?>
<svg xmlns="http://www.w3.org/2000/svg" id="Layer_1" data-name="Layer 1" viewBox="0 0 512 512" width="512" height="512"><title>Crane</title><path d="M438.693,255l-25.36-94H346v36h60.092a10.037,10.037,0,0,1,9.545,7.1c.032.1.061.466.087.57L428.5,255Z"/><polygon points="346 209 346 255 416.117 255 404.533 209 346 209"/><path d="M32,334.571C32,349.5,41.009,362,51.672,362H71.6a48.566,48.566,0,0,1,12.641-27.659l.1-.077c.068-.073.137-.133.206-.2a47.456,47.456,0,0,1,34.742-14.9,48.1,48.1,0,0,1,34.74,14.915c.063.064.126.131.188.2.031.031.088.04.117.071A48.574,48.574,0,0,1,166.977,362H311V307H32Z"/><path d="M145.48,342.494c-.038-.038-.083-.086-.12-.125a35.926,35.926,0,0,0-52.14,0c-.037.04-.075.078-.113.116l-.157.168a35.761,35.761,0,0,0-9.615,24.465c0,.267,0,.541.007.808a35.958,35.958,0,0,0,71.9.041c.008-.3.007-.576.007-.849a35.815,35.815,0,0,0-9.678-24.531Z"/><path d="M393.731,331.162a36,36,0,0,0-35.956,35.956c0,.267,0,.541.007.808a35.958,35.958,0,0,0,71.9.041c.009-.308.008-.582.008-.849A36,36,0,0,0,393.731,331.162Z"/><path d="M446.512,267H346v95h.038a47.956,47.956,0,0,1,95.387,0h13.516C462.416,362,480,348.6,480,330.111V308.936C480,286.513,461.273,267,446.512,267Z"/><path d="M267.874,295H303.52L131.726,109H123v60.848a5.938,5.938,0,0,0,5.926,6,14,14,0,1,1-14.064,14,6,6,0,0,0-12.007,0,26.036,26.036,0,0,0,52.072,0A26.48,26.48,0,0,0,135,164.546v-40.2Z"/><polygon points="122.833 109 123 109 123 108.951 122.833 109"/></svg>
