<?xml version="1.0" encoding="utf-8"?>
<!-- Generator: Adobe Illustrator 21.0.0, SVG Export Plug-In . SVG Version: 6.00 Build 0)  -->
<svg version="1.1" id="Layer_1" xmlns="http://www.w3.org/2000/svg" xmlns:xlink="http://www.w3.org/1999/xlink" x="0px" y="0px"
	 viewBox="0 0 512 512" style="enable-background:new 0 0 512 512;" xml:space="preserve">
<style type="text/css">
	.st0{fill:#79B51D;}
	.st1{fill:#1F325C;}
</style>
<title>Crane</title>
<path class="st0" d="M438.7,255l-25.4-94H346v36h60.1c4.4,0,8.3,2.9,9.5,7.1c0,0.1,0.1,0.5,0.1,0.6l12.8,50.3H438.7z"/>
<polygon class="st0" points="346,209 346,255 416.1,255 404.5,209 "/>
<path class="st0" d="M32,334.6c0,14.9,9,27.4,19.7,27.4h19.9c1.1-10.3,5.6-20,12.6-27.7l0.1-0.1c0.1-0.1,0.1-0.1,0.2-0.2
	c9-9.6,21.6-15,34.7-14.9c13.1,0,25.7,5.4,34.7,14.9c0.1,0.1,0.1,0.1,0.2,0.2c0,0,0.1,0,0.1,0.1c7.1,7.6,11.5,17.3,12.6,27.6h144
	v-55H32V334.6z"/>
<path class="st0" d="M145.6,342.6L145.6,342.6c-0.1-0.1-0.2-0.2-0.2-0.2c-13.7-14.4-36.4-15-50.8-1.4c-0.5,0.4-0.9,0.9-1.4,1.4
	c0,0-0.1,0.1-0.1,0.1l-0.2,0.2c-6.2,6.6-9.6,15.4-9.6,24.5c0,0.3,0,0.5,0,0.8c0.4,19.9,16.8,35.6,36.7,35.2
	c19.3-0.4,34.8-15.9,35.2-35.2c0-0.3,0-0.6,0-0.8C155.3,358,151.8,349.2,145.6,342.6z M139,367.6c-0.2,10.6-8.7,19.1-19.3,19.3
	c-10.9,0.2-19.9-8.4-20.1-19.3c0-0.1,0-0.3,0-0.4c0-5,1.9-9.8,5.3-13.4l0.1-0.1c0,0,0,0,0.1-0.1c0.2-0.3,0.5-0.5,0.7-0.7
	c7.9-7.5,20.4-7.2,27.8,0.7c0,0,0,0,0.1,0.1l0,0.1c3.4,3.6,5.3,8.5,5.3,13.4C139,367.3,139,367.4,139,367.6z"/>
<path class="st0" d="M393.7,331.2c-19.8,0-35.9,16.1-36,36c0,0.3,0,0.5,0,0.8c0.4,19.9,16.8,35.6,36.7,35.2
	c19.3-0.4,34.8-15.9,35.2-35.2c0-0.3,0-0.6,0-0.8C429.7,347.3,413.6,331.2,393.7,331.2z M413.4,367.6c-0.2,10.6-8.7,19.1-19.3,19.3
	c-10.9,0.2-19.9-8.4-20.1-19.3c0-0.1,0-0.3,0-0.4c0-5,1.9-9.8,5.3-13.4l0.1-0.1c0,0,0,0,0.1-0.1c0.2-0.3,0.5-0.5,0.7-0.7
	c7.9-7.5,20.4-7.2,27.8,0.7c0,0,0,0,0.1,0.1l0,0.1c3.4,3.6,5.3,8.5,5.3,13.4C413.4,367.3,413.4,367.4,413.4,367.6z"/>
<path class="st0" d="M446.5,267H346v95h0c2.8-26.3,26.4-45.5,52.7-42.7c22.5,2.4,40.3,20.2,42.7,42.7h13.5
	c7.5,0,25.1-13.4,25.1-31.9v-21.2C480,286.5,461.3,267,446.5,267z"/>
<path class="st1" d="M222.5,295h81L66.2,109h-8.7v60.8c0,3.3,2.6,6,5.9,6c0,0,0,0,0.1,0c7.7,0,14,6.3,13.9,14.1
	c0,7.7-6.3,14-14.1,13.9c-7.7,0-13.9-6.3-13.9-14c0-3.3-2.7-6-6-6c-3.3,0-6,2.7-6,6c0,14.4,11.7,26,26,26s26-11.7,26-26l0,0
	c-0.2-12-8.3-22.3-19.9-25.3V138L222.5,295z"/>
<polygon points="57.3,109 57.5,109 57.5,109 "/>
</svg>
