<?xml version="1.0" encoding="utf-8"?>
<!-- Generator: Adobe Illustrator 21.0.0, SVG Export Plug-In . SVG Version: 6.00 Build 0)  -->
<svg version="1.1" id="Capa_1" xmlns="http://www.w3.org/2000/svg" xmlns:xlink="http://www.w3.org/1999/xlink" x="0px" y="0px"
	 viewBox="0 0 450 450" style="enable-background:new 0 0 450 450;" xml:space="preserve">
<style type="text/css">
	.st0{fill:#003560;}
	.st1{fill:#84A338;}
	.st2{fill:#FFFFFF;}
	.st3{opacity:0.2;}
	.st4{clip-path:url(#SVGID_2_);fill:#84A338;}
	.st5{fill:none;}
</style>
<g>
	<rect x="115.7" y="181.3" transform="matrix(0.5724 -0.82 0.82 0.5724 -90.2628 196.979)" class="st0" width="56" height="7.4"/>
	
		<rect x="169.3" y="132" transform="matrix(0.5426 -0.84 0.84 0.5426 -128.1607 268.2153)" class="st0" width="25.8" height="239.7"/>
	<path class="st0" d="M332.9,336v34.1H131.4V336c0-1.8,0.4-3.4,1.2-4.9c1.8-3.7,5.5-6.2,9.9-6.2h179.4c4.4,0,8.1,2.5,9.9,6.2
		C332.5,332.5,332.9,334.2,332.9,336"/>
	<rect x="155.6" y="360" class="st1" width="156" height="10"/>
	<rect x="318" y="73.7" class="st1" width="3.7" height="65.3"/>
	<path class="st0" d="M165.3,358.2c0,12.1-9.8,21.8-21.8,21.8c-12.1,0-21.8-9.8-21.8-21.8c0-12.1,9.8-21.8,21.8-21.8
		C155.5,336.3,165.3,346.1,165.3,358.2"/>
	<path class="st2" d="M157.7,358.2c0,7.9-6.4,14.2-14.2,14.2c-7.9,0-14.2-6.4-14.2-14.2c0-7.9,6.4-14.2,14.2-14.2
		C151.3,343.9,157.7,350.3,157.7,358.2"/>
	<path class="st0" d="M342.8,358.2c0,12.1-9.8,21.8-21.8,21.8c-12.1,0-21.8-9.8-21.8-21.8c0-12.1,9.8-21.8,21.8-21.8
		C333,336.3,342.8,346.1,342.8,358.2"/>
	<path class="st2" d="M335.2,358.2c0,7.9-6.4,14.2-14.2,14.2c-7.9,0-14.2-6.4-14.2-14.2c0-7.9,6.4-14.2,14.2-14.2
		C328.8,343.9,335.2,350.3,335.2,358.2"/>
	<path class="st0" d="M291.7,297.8c-17.2,0-31.2,14-31.2,31.2h31.2h8.8v-31.2H291.7z"/>
	
		<rect x="72.8" y="133.1" transform="matrix(0.9122 -0.4096 0.4096 0.9122 -44.7088 83.3202)" class="st0" width="198.6" height="25.8"/>
	<path class="st0" d="M109.3,186.8c0,10.5-8.5,19-19,19c-10.5,0-19-8.5-19-19c0-10.5,8.5-19,19-19
		C100.8,167.8,109.3,176.3,109.3,186.8"/>
	<path class="st2" d="M98.7,186.8c0,4.6-3.8,8.4-8.4,8.4c-4.6,0-8.4-3.8-8.4-8.4c0-4.6,3.8-8.4,8.4-8.4
		C94.9,178.4,98.7,182.1,98.7,186.8"/>
	<path class="st1" d="M361.1,135.6h-82.6V77.4h82.6V135.6z M364.8,73.7h-90v65.6h90V73.7z"/>
	<path class="st1" d="M364.8,140.7c0,2-1.7,3.7-3.7,3.7H268v-10.1h96.9V140.7z"/>
	<rect x="257.4" y="93.5" class="st1" width="14" height="27.9"/>
	<rect x="268" y="93.5" class="st1" width="6.8" height="50.9"/>
	<rect x="276.9" y="91.6" class="st1" width="86" height="3.7"/>
	<rect x="274.8" y="70" class="st1" width="90" height="6.8"/>
	<rect x="364.8" y="70" class="st1" width="13.8" height="31.1"/>
	<g class="st3">
		<g>
			<defs>
				<rect id="SVGID_1_" x="319.8" y="134.3" width="45" height="10.1"/>
			</defs>
			<clipPath id="SVGID_2_">
				<use xlink:href="#SVGID_1_"  style="overflow:visible;"/>
			</clipPath>
			<path class="st4" d="M319.8,144.4h41.3c2,0,3.7-1.7,3.7-3.7v-6.5h-45V144.4z"/>
		</g>
	</g>
</g>
<rect x="-56" y="-133" class="st5" width="792" height="612"/>
</svg>
