<?xml version="1.0" encoding="utf-8"?>
<!-- Generator: Adobe Illustrator 23.0.2, SVG Export Plug-In . SVG Version: 6.00 Build 0)  -->
<svg version="1.1" id="Capa_1" xmlns="http://www.w3.org/2000/svg" xmlns:xlink="http://www.w3.org/1999/xlink" x="0px" y="0px"
	 viewBox="0 0 612 612" style="enable-background:new 0 0 612 612;" xml:space="preserve">
<style type="text/css">
	.st0{fill:#002A74;}
	.st1{fill:#6AAB2E;}
</style>
<g>
	<path class="st0" d="M58.6,456.6c-6.7,0-12.3,5.4-12.3,12.3c0,6.7,5.4,12.3,12.3,12.3c6.7,0,12.3-5.4,12.3-12.3
		C71,462.1,65.4,456.5,58.6,456.6z"/>
	<path class="st0" d="M177,456.6c-6.7,0-12.3,5.4-12.3,12.3c0,6.7,5.4,12.3,12.3,12.3c6.7,0,12.3-5.4,12.3-12.3
		C189.3,462.1,183.7,456.6,177,456.6z"/>
	<path class="st0" d="M542.2,375.5l-40.4-84.7h-89c0,0,0,0-0.1,0h-14.3v102.4h0.1V412H32.7v-45.4H12.6v53.2h18.7
		c-17.4,9.6-29.1,28-29.1,49.2c0,31,25.3,56.3,56.3,56.3s56.3-25.3,56.3-56.3c0-9.3-2.3-18.3-6.5-26.1h18.2c1.6-2.9,3.5-5.6,5.6-8.2
		c-7.3,9.5-11.7,21.3-11.7,34.1c0,31,25.3,56.3,56.3,56.3s56.3-25.3,56.3-56.3c0-9.3-2.3-18.3-6.5-26.1h171.4
		c1.6-2.9,3.5-5.6,5.6-8.2c-7.3,9.5-11.7,21.3-11.7,34.1c0,31,25.3,56.3,56.3,56.3s56.3-25.3,56.3-56.3c0-5.7-0.9-11.2-2.5-16.3
		h40.2V375.5L542.2,375.5z M58.5,503.4C39.4,503.4,24,488,24,468.9c0-19.1,15.4-34.5,34.5-34.5S93,449.9,93,468.9
		C93,488,77.6,503.4,58.5,503.4z M177,503.4c-19.1,0-34.5-15.4-34.5-34.5c0-19.1,15.4-34.5,34.5-34.5s34.5,15.4,34.5,34.5
		C211.5,488,195.9,503.4,177,503.4z M448.5,503.4c-19.1,0-34.5-15.4-34.5-34.5c0-19.1,15.4-34.5,34.5-34.5s34.5,15.4,34.5,34.5
		C483,488,467.5,503.4,448.5,503.4z M420.1,371.9v-59h68.4l28,59H420.1z"/>
	<path class="st1" d="M607.3,246c-0.8,0.8-1.8,1.3-2.7,1.9c-1,0.6-2.3,1.3-3.8,1.8c-0.6,0.3-1.4,0.4-2.2,0.6c-0.8,0-1.6,0.1-2.3,0.3
		c-1.6,0-3.1,0.1-4.7-0.4c-0.8-0.1-1.6-0.4-2.3-0.6l-1-0.4l-0.4-0.3l-0.8-0.4c-0.9-0.5-2.1-1.2-2.3-1.6c-0.5-0.5-1-0.8-1.4-1.4
		c-1.2-1.2-1.9-2.6-2.6-4s-1-3.1-1.3-4.7c0-0.8-0.1-1.6-0.1-2.3c0.1-0.8,0.3-1.6,0.3-2.3V232l0.3-0.6l0.5-1.3
		c0.3-0.9,0.5-1.8,0.9-2.3c0.5-0.8,0.9-1.6,1.4-2.3c1.7,1,3.8,1.7,6,1.7c6.2,0,11.3-5.1,11.3-11.3c0-6-4.5-10.8-10.4-11.2V88.8
		l3.4-2.7l-9.3-11.3l-82,67.9l-4.2-4.9l-98.2,81.2l-4.2-4.9l-85.4,70.7c-4.3,0.8-8.4,2.2-12.1,4.3
		c-14.9-126.8-169.8-128.3-171.5-128.3c-4.8,0-8.7,3.9-8.7,8.7v114.8H83.9c-19.6,0-35.4,15.8-35.4,35.4v73.6H384V289.4
		c-2.3-1.4-4.7-2.6-7.3-3.5l46.3-38.4l-5.1-6.2l98.1-81.2l-5.2-6.4l73.4-60.9v112.1c-4.2,1.7-7,5.7-7,10.4c0,2.3,0.6,4.5,1.9,6.2
		c-0.9,0.6-1.9,1.4-3,2.3c-0.9,0.8-1.4,1.4-1.9,2.2l-0.9,1.2l-0.4,0.5l-0.3,0.3l-0.4,0.8c-0.5,1-0.9,2.3-1.4,3.5
		c-0.4,1.2-0.5,2.6-0.6,3.9c-0.5,5.3,1.4,11.4,5.3,15.8c1.8,2.2,5.3,4.5,7,5.1l0.8,0.4l0.4,0.1l0.1,0.1l0.5,0.3h0.1l2.1,0.5
		c1.4,0.4,2.7,0.6,4.2,0.5c2.7,0.1,5.3-0.5,7.5-1.3c1.2-0.5,2.2-1,3.1-1.4c0.9-0.6,1.7-1.3,2.6-1.9c1.6-1.3,2.6-2.9,3.5-4.2
		c0.8-1.4,1.4-2.7,1.7-3.8c0.4-2.1,0.5-3.2,0.5-3.2S608.8,244.6,607.3,246z M281.5,309.6c-0.9,3.1-1.4,6.5-1.4,10v6.9h-27.5
		l1.6-46.3c4.7-1,8.2-5.3,8.2-10.4c0-5.8-4.8-10.6-10.6-10.6s-10.6,4.8-10.6,10.6c0,4.3,2.6,7.9,6.2,9.6l-1.6,47.1h-5.6l-10.5-61.6
		c2.9-1.9,4.8-5.2,4.8-9c0-5.8-4.8-10.6-10.6-10.6c-5.8,0-10.6,4.8-10.6,10.6c0,5.6,4.3,10.1,9.7,10.5l10.2,59.9h-64.1v-6.9
		c0-19.2-15.2-34.8-34.3-35.4V178.2c33,2.1,146.7,17.8,146.7,130.9V309.6z"/>
	<path class="st0" d="M448.5,456.6c-6.7,0-12.3,5.4-12.3,12.3c0,6.7,5.4,12.3,12.3,12.3c6.7,0,12.3-5.4,12.3-12.3
		C460.9,462.1,455.3,456.5,448.5,456.6z"/>
</g>
</svg>
