<?xml version="1.0" encoding="iso-8859-1"?>
<!-- Generator: Adobe Illustrator 16.0.0, SVG Export Plug-In . SVG Version: 6.00 Build 0)  -->
<!DOCTYPE svg PUBLIC "-//W3C//DTD SVG 1.1//EN" "http://www.w3.org/Graphics/SVG/1.1/DTD/svg11.dtd">
<svg version="1.1" id="Capa_1" xmlns="http://www.w3.org/2000/svg" xmlns:xlink="http://www.w3.org/1999/xlink" x="0px" y="0px"
	 width="468.194px" height="468.194px" viewBox="0 0 468.194 468.194" style="enable-background:new 0 0 468.194 468.194;"
	 xml:space="preserve">
<g>
	<path d="M466.378,192.54c-0.557,0.594-1.401,0.969-2.102,1.535c-0.841,0.46-1.839,0.985-2.882,1.357
		c-0.527,0.161-1.078,0.323-1.657,0.493c-0.603,0.044-1.19,0.134-1.784,0.219c-1.204,0.033-2.438,0.055-3.636-0.276
		c-0.612-0.066-1.201-0.274-1.778-0.536l-0.771-0.287l-0.285-0.162l-0.574-0.32c-0.742-0.421-1.647-0.909-1.812-1.236
		c-0.355-0.378-0.771-0.556-1.148-1.144c-0.859-0.898-1.514-1.994-2.012-3.138c-0.515-1.144-0.812-2.367-0.963-3.587
		c-0.014-0.61-0.09-1.231-0.079-1.844c0.079-0.593,0.159-1.198,0.21-1.814l0.009-0.112v-0.063l0.011-0.027
		c0.115-0.269-0.118,0.234-0.142,0.287l0.093-0.26l0.191-0.531l0.374-1.042c0.217-0.678,0.416-1.448,0.688-1.754
		c0.378-0.565,0.681-1.207,1.051-1.805c1.341,0.829,2.913,1.34,4.585,1.34c4.805,0,8.717-3.901,8.717-8.714
		c0-4.583-3.543-8.298-8.049-8.646v-89.15l2.572-2.129l-7.213-8.711l-63.217,52.345l-3.156-3.823l-75.625,62.636l-3.162-3.822
		l-65.802,54.493c-3.325,0.566-6.453,1.692-9.254,3.338c-11.47-97.744-130.946-98.931-132.218-98.931
		c-3.674,0-6.656,2.974-6.656,6.657v88.51H63.001c-15.1,0-27.338,12.249-27.338,27.343v56.697h269.685v14.471H23.365v-35.02H7.956
		v40.979h14.372C9.025,333.786,0,347.993,0,364.289c0,23.943,19.482,43.424,43.425,43.424s43.426-19.48,43.426-43.424
		c0-7.247-1.805-14.064-4.96-20.078h13.998c1.245-2.228,2.729-4.296,4.326-6.255c-5.604,7.311-8.977,16.426-8.977,26.333
		c0,23.943,19.482,43.424,43.425,43.424s43.426-19.48,43.426-43.424c0-7.247-1.803-14.064-4.957-20.078h132.052
		c1.248-2.228,2.728-4.296,4.323-6.255c-5.602,7.311-8.974,16.426-8.974,26.333c0,23.943,19.479,43.424,43.425,43.424
		c23.946,0,43.426-19.48,43.426-43.424c0-4.385-0.667-8.615-1.882-12.61h31.009v-59.184l-31.105-65.339H315.97l6.387-24.189
		l-24.013,26.15c-2.764-2.538-6.052-4.497-9.68-5.743l35.695-29.552l-3.931-4.758l75.608-62.61l-4.049-4.892l56.627-46.885v86.419
		c-3.151,1.319-5.36,4.416-5.36,8.046c0,1.8,0.547,3.464,1.476,4.849c-0.742,0.476-1.488,1.107-2.287,1.822
		c-0.729,0.591-1.073,1.119-1.541,1.686l-0.668,0.881l-0.341,0.446l-0.164,0.235l-0.302,0.625c-0.366,0.839-0.706,1.753-1.056,2.678
		c-0.29,0.946-0.365,1.97-0.542,3.001c-0.378,4.148,1.056,8.81,4.132,12.2c1.396,1.653,4.095,3.497,5.364,3.916l0.58,0.282
		l0.304,0.128l0.145,0.074l0.373,0.167l0.02,0.011l0.046,0.011l0.107,0.021l1.587,0.38c1.056,0.276,2.092,0.46,3.157,0.395
		c2.092,0.123,4.076-0.37,5.795-0.964c0.854-0.394,1.68-0.752,2.424-1.148c0.681-0.523,1.335-1.021,1.965-1.508
		c1.204-0.993,2.021-2.159,2.697-3.182c0.585-1.138,1.107-2.106,1.267-2.881c0.304-1.581,0.402-2.523,0.402-2.523
		S467.488,191.38,466.378,192.54z M215.345,241.533c-0.712,2.446-1.109,5.019-1.109,7.688v5.264h-21.253l1.171-35.729
		c3.621-0.846,6.331-4.085,6.331-7.973c0-4.534-3.669-8.208-8.203-8.208c-4.543,0-8.208,3.675-8.208,8.208
		c0,3.31,1.96,6.142,4.771,7.442l-1.187,36.259h-4.258l-8.136-47.502c2.229-1.455,3.709-3.973,3.709-6.851
		c0-4.533-3.677-8.208-8.222-8.208c-4.531,0-8.197,3.675-8.197,8.208c0,4.304,3.313,7.792,7.527,8.143l7.916,46.21h-49.388v-5.269
		c0-14.786-11.733-26.794-26.396-27.294v-81.634c25.412,1.646,113.13,13.666,113.13,100.9V241.533z M43.425,390.897
		c-14.675,0-26.616-11.939-26.616-26.616c0-14.676,11.941-26.615,26.616-26.615c14.673,0,26.616,11.939,26.616,26.615
		C70.042,378.958,58.099,390.897,43.425,390.897z M134.669,390.897c-14.674,0-26.616-11.939-26.616-26.616
		c0-14.676,11.942-26.615,26.616-26.615c14.675,0,26.614,11.939,26.614,26.615C161.284,378.958,149.345,390.897,134.669,390.897z
		 M343.971,390.897c-14.676,0-26.617-11.939-26.617-26.616c0-14.676,11.941-26.615,26.617-26.615
		c14.675,0,26.614,11.939,26.614,26.615C370.585,378.958,358.65,390.897,343.971,390.897z M322.157,243.969h52.648l21.642,45.45
		h-74.29V243.969z M52.955,364.281c0,5.26-4.268,9.532-9.53,9.532c-5.261,0-9.532-4.272-9.532-9.532
		c0-5.259,4.271-9.532,9.532-9.532C48.687,354.749,52.955,359.022,52.955,364.281z M144.2,364.281c0,5.26-4.271,9.532-9.531,9.532
		c-5.262,0-9.531-4.272-9.531-9.532c0-5.259,4.27-9.532,9.531-9.532C139.93,354.749,144.2,359.022,144.2,364.281z M353.507,364.281
		c0,5.26-4.273,9.532-9.532,9.532c-5.257,0-9.524-4.272-9.524-9.532c0-5.259,4.268-9.532,9.524-9.532
		C349.233,354.749,353.507,359.022,353.507,364.281z"/>
</g>
<g>
</g>
<g>
</g>
<g>
</g>
<g>
</g>
<g>
</g>
<g>
</g>
<g>
</g>
<g>
</g>
<g>
</g>
<g>
</g>
<g>
</g>
<g>
</g>
<g>
</g>
<g>
</g>
<g>
</g>
</svg>
