<?xml version="1.0" encoding="utf-8"?>
<!-- Generator: Adobe Illustrator 23.0.2, SVG Export Plug-In . SVG Version: 6.00 Build 0)  -->
<svg version="1.1" id="Capa_1" xmlns="http://www.w3.org/2000/svg" xmlns:xlink="http://www.w3.org/1999/xlink" x="0px" y="0px"
	 viewBox="0 0 468.2 468.2" style="enable-background:new 0 0 468.2 468.2;" xml:space="preserve">
<style type="text/css">
	.st0{fill:#002A74;}
</style>
<g>
	<path class="st0" d="M466.4,192.5c-0.6,0.6-1.4,1-2.1,1.5c-0.8,0.5-1.8,1-2.9,1.4c-0.5,0.2-1.1,0.3-1.7,0.5c-0.6,0-1.2,0.1-1.8,0.2
		c-1.2,0-2.4,0.1-3.6-0.3c-0.6-0.1-1.2-0.3-1.8-0.5l-0.8-0.3l-0.3-0.2l-0.6-0.3c-0.7-0.4-1.6-0.9-1.8-1.2c-0.4-0.4-0.8-0.6-1.1-1.1
		c-0.9-0.9-1.5-2-2-3.1c-0.5-1.1-0.8-2.4-1-3.6c0-0.6-0.1-1.2-0.1-1.8c0.1-0.6,0.2-1.2,0.2-1.8l0-0.1v-0.1l0,0
		c0.1-0.3-0.1,0.2-0.1,0.3l0.1-0.3l0.2-0.5l0.4-1c0.2-0.7,0.4-1.4,0.7-1.8c0.4-0.6,0.7-1.2,1.1-1.8c1.3,0.8,2.9,1.3,4.6,1.3
		c4.8,0,8.7-3.9,8.7-8.7c0-4.6-3.5-8.3-8-8.6V71.3l2.6-2.1l-7.2-8.7l-63.2,52.3l-3.2-3.8L306,171.6l-3.2-3.8L237,222.3
		c-3.3,0.6-6.5,1.7-9.3,3.3c-11.5-97.7-130.9-98.9-132.2-98.9c-3.7,0-6.7,3-6.7,6.7v88.5H63c-15.1,0-27.3,12.2-27.3,27.3v56.7h269.7
		v14.5h-282v-35H8v41h14.4C9,333.8,0,348,0,364.3c0,23.9,19.5,43.4,43.4,43.4s43.4-19.5,43.4-43.4c0-7.2-1.8-14.1-5-20.1h14
		c1.2-2.2,2.7-4.3,4.3-6.3c-5.6,7.3-9,16.4-9,26.3c0,23.9,19.5,43.4,43.4,43.4s43.4-19.5,43.4-43.4c0-7.2-1.8-14.1-5-20.1h132.1
		c1.2-2.2,2.7-4.3,4.3-6.3c-5.6,7.3-9,16.4-9,26.3c0,23.9,19.5,43.4,43.4,43.4c23.9,0,43.4-19.5,43.4-43.4c0-4.4-0.7-8.6-1.9-12.6
		h31v-59.2l-31.1-65.3H316l6.4-24.2l-24,26.1c-2.8-2.5-6.1-4.5-9.7-5.7l35.7-29.6l-3.9-4.8l75.6-62.6l-4-4.9l56.6-46.9v86.4
		c-3.2,1.3-5.4,4.4-5.4,8c0,1.8,0.5,3.5,1.5,4.8c-0.7,0.5-1.5,1.1-2.3,1.8c-0.7,0.6-1.1,1.1-1.5,1.7l-0.7,0.9l-0.3,0.4l-0.2,0.2
		l-0.3,0.6c-0.4,0.8-0.7,1.8-1.1,2.7c-0.3,0.9-0.4,2-0.5,3c-0.4,4.1,1.1,8.8,4.1,12.2c1.4,1.7,4.1,3.5,5.4,3.9l0.6,0.3l0.3,0.1
		l0.1,0.1l0.4,0.2l0,0l0,0l0.1,0l1.6,0.4c1.1,0.3,2.1,0.5,3.2,0.4c2.1,0.1,4.1-0.4,5.8-1c0.9-0.4,1.7-0.8,2.4-1.1
		c0.7-0.5,1.3-1,2-1.5c1.2-1,2-2.2,2.7-3.2c0.6-1.1,1.1-2.1,1.3-2.9c0.3-1.6,0.4-2.5,0.4-2.5S467.5,191.4,466.4,192.5z M215.3,241.5
		c-0.7,2.4-1.1,5-1.1,7.7v5.3H193l1.2-35.7c3.6-0.8,6.3-4.1,6.3-8c0-4.5-3.7-8.2-8.2-8.2c-4.5,0-8.2,3.7-8.2,8.2
		c0,3.3,2,6.1,4.8,7.4l-1.2,36.3h-4.3l-8.1-47.5c2.2-1.5,3.7-4,3.7-6.9c0-4.5-3.7-8.2-8.2-8.2c-4.5,0-8.2,3.7-8.2,8.2
		c0,4.3,3.3,7.8,7.5,8.1l7.9,46.2h-49.4v-5.3c0-14.8-11.7-26.8-26.4-27.3v-81.6c25.4,1.6,113.1,13.7,113.1,100.9L215.3,241.5
		L215.3,241.5z M43.4,390.9c-14.7,0-26.6-11.9-26.6-26.6c0-14.7,11.9-26.6,26.6-26.6c14.7,0,26.6,11.9,26.6,26.6
		C70,379,58.1,390.9,43.4,390.9z M134.7,390.9c-14.7,0-26.6-11.9-26.6-26.6c0-14.7,11.9-26.6,26.6-26.6c14.7,0,26.6,11.9,26.6,26.6
		C161.3,379,149.3,390.9,134.7,390.9z M344,390.9c-14.7,0-26.6-11.9-26.6-26.6c0-14.7,11.9-26.6,26.6-26.6
		c14.7,0,26.6,11.9,26.6,26.6C370.6,379,358.6,390.9,344,390.9z M322.2,244h52.6l21.6,45.5h-74.3V244z M53,364.3
		c0,5.3-4.3,9.5-9.5,9.5c-5.3,0-9.5-4.3-9.5-9.5c0-5.3,4.3-9.5,9.5-9.5C48.7,354.7,53,359,53,364.3z M144.2,364.3
		c0,5.3-4.3,9.5-9.5,9.5c-5.3,0-9.5-4.3-9.5-9.5c0-5.3,4.3-9.5,9.5-9.5S144.2,359,144.2,364.3z M353.5,364.3c0,5.3-4.3,9.5-9.5,9.5
		c-5.3,0-9.5-4.3-9.5-9.5c0-5.3,4.3-9.5,9.5-9.5C349.2,354.7,353.5,359,353.5,364.3z"/>
</g>
</svg>
