<?xml version="1.0" encoding="utf-8"?>
<!-- Generator: Adobe Illustrator 23.0.2, SVG Export Plug-In . SVG Version: 6.00 Build 0)  -->
<svg version="1.1" id="Layer_1" xmlns="http://www.w3.org/2000/svg" xmlns:xlink="http://www.w3.org/1999/xlink" x="0px" y="0px"
	 viewBox="0 0 504.1 504.1" style="enable-background:new 0 0 504.1 504.1;" xml:space="preserve">
<style type="text/css">
	.st0{fill:#D07C40;}
	.st1{fill:#EFEFEF;}
	.st2{fill:#79B51D;}
	.st3{fill:#EFC75E;}
	.st4{fill:#E8C15B;}
	.st5{fill:#11277C;}
	.st6{fill:#606060;}
</style>
<path class="st0" d="M0,200.9L252.1,51.2l252.1,149.7v220.6H0V200.9z"/>
<path class="st1" d="M55.1,11.8H449c8.7,0,15.8,7.1,15.8,15.8v275.7c0,8.7-7.1,15.8-15.8,15.8H55.1c-8.7,0-15.8-7.1-15.8-15.8V27.6
	C39.4,18.9,46.5,11.8,55.1,11.8z"/>
<path class="st2" d="M415.9,43.3l25.2-31.5h7.9c8.7,0,15.8,7.1,15.8,15.8v15.8H415.9z M211.1,43.3l25.2-31.5h55.1l-25.2,31.5H211.1z
	 M39.4,43.3V27.6c0-8.7,7.1-15.8,15.8-15.8h39.4L69.3,43.3H39.4z"/>
<path class="st3" d="M504.1,468.7c0,13-10.6,23.6-23.6,23.6H23.6c-13,0-23.6-10.6-23.6-23.6V200.9l252.1,110.3l252.1-110.3
	L504.1,468.7L504.1,468.7z"/>
<path class="st4" d="M504.1,468.7c0,13-10.6,23.6-23.6,23.6H23.6c-13,0-23.6-10.6-23.6-23.6v-47.3l504.1-220.6V468.7z"/>
<path class="st5" d="M313.5,43.3l25.2-31.5h55.1l-25.2,31.5H313.5z M108.7,43.3l25.2-31.5H189l-25.2,31.5H108.7z"/>
<g>
	<path class="st6" d="M164.9,112.1c-6.1,5.8-13.3,8.7-21.7,8.7c-9,0-16.7-3.2-23.1-9.6c-6.4-6.4-9.6-14.1-9.6-23.1
		c0-9,3.2-16.7,9.6-23.1c6.4-6.4,14.1-9.6,23.1-9.6c8.4,0,15.8,2.8,22,8.5l-2.7,2.5c-5.5-4.9-11.9-7.3-19.3-7.3
		c-8,0-14.8,2.8-20.5,8.5c-5.7,5.7-8.5,12.5-8.5,20.5c0,8,2.8,14.9,8.5,20.5c5.7,5.7,12.5,8.5,20.5,8.5c6.9,0,12.9-2.1,18.1-6.3
		V91.4h3.6V112.1z"/>
	<path class="st6" d="M176.1,80.9h3.6V88c0.7-1.1,1.6-2.1,2.6-3.1c3.2-3.2,6.4-4.8,9.7-5v3.9c-2.3,0.1-4.6,1.4-7,3.8
		c-3.4,3.4-5.2,7.4-5.3,12.2V120h-3.6V80.9z"/>
	<path class="st6" d="M242.3,120h-3.6v-8c-0.7,0.9-1.4,1.8-2.3,2.7c-4.3,4.3-9.5,6.4-15.5,6.4c-6,0-11.2-2.1-15.5-6.4
		c-4.3-4.3-6.4-9.4-6.4-15.5c0-6.1,2.1-11.2,6.4-15.5c4.3-4.3,9.4-6.4,15.5-6.4c6.1,0,11.2,2.1,15.5,6.4c0.8,0.9,1.6,1.7,2.3,2.7
		v-5.5h3.6V120z M238.7,102.8v-7.1c-0.7-3.5-2.3-6.6-5-9.3c-3.5-3.5-7.8-5.3-12.8-5.3c-5,0-9.3,1.8-12.8,5.3
		c-3.5,3.5-5.3,7.8-5.3,12.8c0,5,1.8,9.3,5.3,12.8c3.5,3.5,7.8,5.3,12.8,5.3c5,0,9.3-1.8,12.8-5.3
		C236.4,109.4,238,106.3,238.7,102.8z"/>
	<path class="st6" d="M287.8,110.6l3.8,1.4c-0.7,1-1.5,1.9-2.4,2.8c-4.3,4.3-9.5,6.4-15.5,6.4c-6,0-11.2-2.1-15.5-6.4
		s-6.4-9.5-6.4-15.5c0-6,2.1-11.2,6.4-15.5c4.3-4.3,9.4-6.4,15.5-6.4c6.1,0,11.2,2.1,15.5,6.4c0.9,0.9,1.7,1.8,2.4,2.7l-3.8,1.4
		c-0.4-0.5-0.8-1-1.3-1.4c-3.5-3.5-7.8-5.3-12.8-5.3c-5,0-9.2,1.8-12.8,5.3c-3.5,3.5-5.3,7.8-5.3,12.8c0,5,1.8,9.3,5.3,12.8
		c3.5,3.5,7.8,5.3,12.8,5.3c5,0,9.3-1.8,12.8-5.3C287,111.6,287.4,111.1,287.8,110.6z"/>
	<path class="st6" d="M306.3,68c0.7,0.7,1.1,1.5,1.1,2.5c0,1-0.4,1.9-1.1,2.6c-0.7,0.7-1.5,1-2.5,1c-1,0-1.8-0.3-2.5-1
		c-0.7-0.7-1.1-1.5-1.1-2.6c0-1,0.4-1.8,1.1-2.5c0.7-0.7,1.5-1,2.5-1C304.8,67,305.6,67.3,306.3,68z M305.6,80.9V120H302V80.9H305.6
		z"/>
	<path class="st6" d="M360.6,120H357v-8c-0.7,0.9-1.4,1.8-2.3,2.7c-4.3,4.3-9.5,6.4-15.5,6.4c-6,0-11.2-2.1-15.5-6.4
		c-4.3-4.3-6.4-9.4-6.4-15.5c0-6.1,2.1-11.2,6.4-15.5c4.3-4.3,9.4-6.4,15.5-6.4c6.1,0,11.2,2.1,15.5,6.4c0.8,0.9,1.6,1.7,2.3,2.7
		v-5.5h3.6V120z M357,102.8v-7.1c-0.7-3.5-2.3-6.6-5-9.3c-3.5-3.5-7.8-5.3-12.8-5.3c-5,0-9.3,1.8-12.8,5.3
		c-3.5,3.5-5.3,7.8-5.3,12.8c0,5,1.8,9.3,5.3,12.8c3.5,3.5,7.8,5.3,12.8,5.3c5,0,9.3-1.8,12.8-5.3
		C354.7,109.4,356.4,106.3,357,102.8z"/>
	<path class="st6" d="M383.4,99.9c-3.1-1.6-5.2-3.1-6.3-4.2c-1.8-1.8-2.8-4-2.8-6.6c0-2.6,0.9-4.8,2.8-6.7c1.8-1.8,4-2.8,6.6-2.8
		c2.6,0,4.8,0.9,6.5,2.6c1.6,1.7,2.5,3.6,2.5,5.7V88l-3.1,1.2c-0.3-2-0.9-3.5-1.9-4.5c-1-1-2.3-1.5-3.9-1.5c-1.6,0-3,0.6-4.1,1.7
		c-1.1,1.1-1.7,2.5-1.7,4.1c0,1.6,0.6,3,1.7,4.1c0.7,0.7,2.1,1.7,4.2,3c3.4,1.9,5.8,3.5,7.3,4.9c2.3,2.3,3.4,5,3.4,8.2
		c0,3.2-1.1,6-3.4,8.3s-5,3.4-8.2,3.4c-3.2,0-6-1.1-8.2-3.4c-2.3-2.3-3.4-4.8-3.4-7.5l3.5-0.9c0,2.3,0.8,4.3,2.4,5.9
		c1.6,1.6,3.5,2.4,5.7,2.4c2.2,0,4.1-0.8,5.7-2.4c1.6-1.6,2.4-3.5,2.4-5.7c0-2.2-0.8-4.1-2.4-5.7
		C387.7,102.8,385.9,101.5,383.4,99.9z"/>
	<path class="st6" d="M97.2,154.2v3.6H68.9v26.5h28.3v3.6H68.9v26.5h28.3v3.6H65.3v-63.8H97.2z"/>
	<path class="st6" d="M119,197.9c-3.1-1.6-5.2-3.1-6.3-4.2c-1.8-1.8-2.8-4-2.8-6.6c0-2.6,0.9-4.8,2.8-6.7c1.8-1.8,4-2.8,6.6-2.8
		c2.6,0,4.8,0.9,6.5,2.6c1.6,1.7,2.5,3.6,2.5,5.7v0.2l-3.1,1.2c-0.3-2-0.9-3.5-1.9-4.5c-1-1-2.3-1.5-3.9-1.5c-1.6,0-3,0.6-4.1,1.7
		c-1.1,1.1-1.7,2.5-1.7,4.1c0,1.6,0.6,3,1.7,4.1c0.7,0.7,2.1,1.7,4.2,3c3.4,1.9,5.8,3.5,7.3,4.9c2.3,2.3,3.4,5,3.4,8.2
		c0,3.2-1.1,6-3.4,8.3c-2.3,2.3-5,3.4-8.2,3.4c-3.2,0-6-1.1-8.2-3.4s-3.4-4.8-3.4-7.5l3.5-0.9c0,2.3,0.8,4.3,2.4,5.9
		c1.6,1.6,3.5,2.4,5.7,2.4c2.2,0,4.1-0.8,5.7-2.4c1.6-1.6,2.4-3.5,2.4-5.7c0-2.2-0.8-4.1-2.4-5.7C123.3,200.8,121.6,199.6,119,197.9
		z"/>
	<path class="st6" d="M173.8,208.6l3.8,1.4c-0.7,1-1.5,1.9-2.4,2.8c-4.3,4.3-9.5,6.4-15.5,6.4c-6,0-11.2-2.1-15.5-6.4
		c-4.3-4.3-6.4-9.5-6.4-15.5c0-6,2.1-11.2,6.4-15.5c4.3-4.3,9.4-6.4,15.5-6.4c6.1,0,11.2,2.1,15.5,6.4c0.9,0.9,1.7,1.8,2.4,2.7
		l-3.8,1.4c-0.4-0.5-0.8-1-1.3-1.4c-3.5-3.5-7.8-5.3-12.8-5.3c-5,0-9.2,1.8-12.8,5.3c-3.5,3.5-5.3,7.8-5.3,12.8s1.8,9.3,5.3,12.8
		c3.5,3.5,7.8,5.3,12.8,5.3c5,0,9.3-1.8,12.8-5.3C173,209.6,173.4,209.1,173.8,208.6z"/>
	<path class="st6" d="M187.1,178.9h3.6v7.1c0.7-1.1,1.6-2.1,2.6-3.1c3.2-3.2,6.4-4.8,9.7-5v3.9c-2.3,0.1-4.6,1.4-7,3.8
		c-3.4,3.4-5.2,7.4-5.3,12.2v20.2h-3.6V178.9z"/>
	<path class="st6" d="M217,166.1c0.7,0.7,1.1,1.5,1.1,2.5c0,1-0.4,1.9-1.1,2.6c-0.7,0.7-1.5,1-2.5,1c-1,0-1.8-0.3-2.5-1
		c-0.7-0.7-1.1-1.5-1.1-2.6c0-1,0.4-1.8,1.1-2.5c0.7-0.7,1.5-1,2.5-1C215.4,165,216.3,165.4,217,166.1z M216.2,178.9v39.2h-3.6
		v-39.2H216.2z"/>
	<path class="st6" d="M229,154.2h3.6v30.2c0.7-0.9,1.4-1.8,2.3-2.6c4.3-4.3,9.4-6.4,15.5-6.4c6.1,0,11.2,2.1,15.5,6.4
		c4.3,4.3,6.4,9.5,6.4,15.5c0,6-2.1,11.2-6.4,15.5c-4.3,4.3-9.4,6.4-15.5,6.4c-6,0-11.2-2.1-15.5-6.4c-0.9-0.9-1.6-1.7-2.3-2.6v7.9
		H229V154.2z M232.6,193.5v7.5c0.7,3.4,2.3,6.4,4.9,9c3.5,3.5,7.8,5.3,12.8,5.3c5,0,9.3-1.8,12.8-5.3c3.5-3.5,5.3-7.8,5.3-12.8
		c0-5-1.8-9.3-5.3-12.8c-3.5-3.5-7.8-5.3-12.8-5.3c-5,0-9.3,1.8-12.8,5.3C234.9,187.1,233.3,190.1,232.6,193.5z"/>
	<path class="st6" d="M288.3,166.1c0.7,0.7,1.1,1.5,1.1,2.5c0,1-0.4,1.9-1.1,2.6c-0.7,0.7-1.5,1-2.5,1c-1,0-1.8-0.3-2.5-1
		c-0.7-0.7-1.1-1.5-1.1-2.6c0-1,0.4-1.8,1.1-2.5c0.7-0.7,1.5-1,2.5-1C286.8,165,287.6,165.4,288.3,166.1z M287.6,178.9v39.2H284
		v-39.2H287.6z"/>
	<path class="st6" d="M300.3,178.9h3.6v7.1c0.7-1.1,1.6-2.1,2.6-3.1c3.2-3.2,6.4-4.8,9.7-5v3.9c-2.3,0.1-4.6,1.4-7,3.8
		c-3.4,3.4-5.2,7.4-5.3,12.2v20.2h-3.6V178.9z"/>
	<path class="st6" d="M328.7,187.6v30.4h-3.6v-39.2h3.6v2.5c3.3-3.2,7.1-4.9,11.4-4.9c4.6,0,8.4,1.4,11.3,4.3
		c2.9,2.9,4.4,6.6,4.5,11v26.2h-3.6v-25.9c0-3.3-1.2-6.2-3.6-8.5c-2.4-2.4-5.3-3.5-8.6-3.5c-3.3,0-6.1,1.2-8.5,3.5
		C330.2,184.9,329.3,186.2,328.7,187.6z"/>
	<path class="st6" d="M387.3,175.3c6.1,0,11.2,2.1,15.5,6.4c4.3,4.3,6.4,9.5,6.4,15.5c0,6-2.1,11.2-6.4,15.5s-9.4,6.4-15.5,6.4
		c-6,0-11.2-2.1-15.5-6.4c-4.3-4.3-6.4-9.4-6.4-15.5c0-6.1,2.1-11.2,6.4-15.5C376.1,177.5,381.3,175.3,387.3,175.3z M374.5,184.5
		c-3.5,3.5-5.3,7.8-5.3,12.8c0,5,1.8,9.3,5.3,12.8c3.5,3.5,7.8,5.3,12.8,5.3s9.3-1.8,12.8-5.3c3.5-3.5,5.3-7.8,5.3-12.8
		c0-5-1.8-9.3-5.3-12.8c-3.5-3.5-7.8-5.3-12.8-5.3S378,180.9,374.5,184.5z"/>
	<path class="st6" d="M429.5,197.9c-3.1-1.6-5.2-3.1-6.3-4.2c-1.8-1.8-2.8-4-2.8-6.6c0-2.6,0.9-4.8,2.8-6.7c1.8-1.8,4-2.8,6.6-2.8
		c2.6,0,4.8,0.9,6.5,2.6c1.6,1.7,2.5,3.6,2.5,5.7v0.2l-3.1,1.2c-0.3-2-0.9-3.5-1.9-4.5c-1-1-2.3-1.5-3.9-1.5c-1.6,0-3,0.6-4.1,1.7
		c-1.1,1.1-1.7,2.5-1.7,4.1c0,1.6,0.6,3,1.7,4.1c0.7,0.7,2.1,1.7,4.2,3c3.4,1.9,5.8,3.5,7.3,4.9c2.3,2.3,3.4,5,3.4,8.2
		c0,3.2-1.1,6-3.4,8.3s-5,3.4-8.2,3.4c-3.2,0-6-1.1-8.2-3.4c-2.3-2.3-3.4-4.8-3.4-7.5l3.5-0.9c0,2.3,0.8,4.3,2.4,5.9
		c1.6,1.6,3.5,2.4,5.7,2.4c2.2,0,4.1-0.8,5.7-2.4c1.6-1.6,2.4-3.5,2.4-5.7c0-2.2-0.8-4.1-2.4-5.7
		C433.8,200.8,432.1,199.6,429.5,197.9z"/>
</g>
<g>
	<g>
		<path class="st6" d="M142.9,141h1.3v2c0.2-0.3,0.5-0.7,0.8-1c1.6-1.6,3.5-2.3,5.7-2.3c2.2,0,4.1,0.8,5.7,2.4s2.4,3.5,2.4,5.7
			c0,2.2-0.8,4.1-2.4,5.7s-3.5,2.4-5.7,2.4c-2.2,0-4.1-0.8-5.7-2.4c-0.3-0.3-0.6-0.6-0.8-1v8.4h-1.3V141z M144.2,146.4v2.8
			c0.3,1.3,0.9,2.4,1.8,3.3c1.3,1.3,2.9,1.9,4.7,1.9s3.4-0.6,4.7-1.9s1.9-2.9,1.9-4.7s-0.6-3.4-1.9-4.7s-2.9-1.9-4.7-1.9
			s-3.4,0.6-4.7,1.9C145,144,144.4,145.2,144.2,146.4z"/>
		<path class="st6" d="M169.6,139.7c2.2,0,4.1,0.8,5.7,2.4s2.4,3.5,2.4,5.7c0,2.2-0.8,4.1-2.4,5.7s-3.5,2.4-5.7,2.4
			c-2.2,0-4.1-0.8-5.7-2.4s-2.4-3.5-2.4-5.7c0-2.2,0.8-4.1,2.4-5.7S167.3,139.7,169.6,139.7z M164.9,143.1c-1.3,1.3-1.9,2.9-1.9,4.7
			s0.6,3.4,1.9,4.7c1.3,1.3,2.9,1.9,4.7,1.9s3.4-0.6,4.7-1.9c1.3-1.3,1.9-2.9,1.9-4.7s-0.6-3.4-1.9-4.7s-2.9-1.9-4.7-1.9
			S166.2,141.8,164.9,143.1z"/>
		<path class="st6" d="M181.1,141h1.3v2.6c0.3-0.4,0.6-0.8,1-1.1c1.2-1.2,2.4-1.8,3.6-1.8v1.4c-0.8,0-1.7,0.5-2.6,1.4
			c-1.3,1.2-1.9,2.7-1.9,4.5v7.4h-1.3V141z"/>
	</g>
</g>
</svg>
