<?xml version="1.0" encoding="utf-8"?>
<!-- Generator: Adobe Illustrator 23.0.2, SVG Export Plug-In . SVG Version: 6.00 Build 0)  -->
<svg version="1.1" id="Capa_1" xmlns="http://www.w3.org/2000/svg" xmlns:xlink="http://www.w3.org/1999/xlink" x="0px" y="0px"
	 viewBox="0 0 450 450" style="enable-background:new 0 0 450 450;" xml:space="preserve">
<style type="text/css">
	.st0{fill:#003560;}
	.st1{fill:#84A338;}
</style>
<g>
	<path class="st0" d="M184.6,65.7h32.9v43.9h-32.9L184.6,65.7L184.6,65.7z"/>
	<path class="st1" d="M172.5,142.6l-28.9-32.9h-38.9l-28.9,32.9H172.5z"/>
	<path class="st1" d="M140.7,82.2c0-9.1-7.4-16.5-16.5-16.5s-16.5,7.4-16.5,16.5v16.5h32.9L140.7,82.2L140.7,82.2z"/>
	<path class="st0" d="M151.7,82.2h22v11h-22V82.2z"/>
	<path class="st1" d="M376.4,163.9c1,0.5,2.2,0.8,3.3,0.8c4.5,0,8-3.5,8-7.8c0-3.1-1.8-5.9-4.6-7.1l-55.9-25.3
		c0.1,0.6,0.2,1.2,0.2,1.9c0,4.8-1.4,9.3-3.6,13.3L376.4,163.9z"/>
	<path class="st0" d="M316.4,126.1c0,9.1-7.4,16.5-16.5,16.5c-9.1,0-16.5-7.4-16.5-16.5c0-9.1,7.4-16.5,16.5-16.5
		S316.4,117.1,316.4,126.1z"/>
	<path class="st1" d="M283.3,104.4l-54.8-24.7v15.5l45.8,21.2C276.1,111.6,279.3,107.5,283.3,104.4z"/>
	<path class="st0" d="M179.1,153.6H69.3v11h109.8V153.6z"/>
	<path class="st0" d="M118.7,197.5h11v32.9h-11V197.5z"/>
	<path class="st0" d="M118.7,241.4h11v11h-11V241.4z"/>
	<path class="st0" d="M139.7,193.3l7.8-7.8l23.3,23.3l-7.8,7.8L139.7,193.3z"/>
	<path class="st0" d="M170.8,224.4l7.8-7.8l7.8,7.8l-7.8,7.8L170.8,224.4z"/>
	<path class="st0" d="M77.6,208.9l23.3-23.3l7.8,7.8l-23.3,23.3L77.6,208.9z"/>
	<path class="st0" d="M62.1,224.4l7.8-7.8l7.8,7.8l-7.8,7.8L62.1,224.4z"/>
	<path class="st1" d="M365.8,340.3h-49.4V148c-3.2,2.4-6.9,4.3-11,5.1v88.4h-11v-88.4c-4.1-0.8-7.8-2.6-11-5.1v192.3H234
		c-12.1,0-22,9.8-22,22c0,12.1,9.8,22,22,22c12.1,0,22-9.8,22-22c0-4-1.2-7.8-3-11h30.5c6,0,11-4.9,11-11v-65.9h11v65.9
		c0,6,4.9,11,11,11H347c-1.9,3.2-3,6.9-3,11c0,12.1,9.8,22,22,22c12.1,0,22-9.8,22-22C387.8,350.1,377.9,340.3,365.8,340.3z
		 M234,373.2c-6,0-11-4.9-11-11s4.9-11,11-11c6,0,11,4.9,11,11C245,368.3,240.1,373.2,234,373.2z M305.4,263.4h-11v-11h11V263.4z
		 M365.8,373.2c-6,0-11-4.9-11-11s4.9-11,11-11s11,4.9,11,11C376.8,368.3,371.8,373.2,365.8,373.2z"/>
</g>
</svg>
