<?xml version="1.0" encoding="utf-8"?>
<!-- Generator: Adobe Illustrator 23.0.2, SVG Export Plug-In . SVG Version: 6.00 Build 0)  -->
<svg version="1.1" id="Capa_1" xmlns="http://www.w3.org/2000/svg" xmlns:xlink="http://www.w3.org/1999/xlink" x="0px" y="0px"
	 viewBox="0 0 350 350" style="enable-background:new 0 0 350 350;" xml:space="preserve">
<style type="text/css">
	.st0{fill:#79B51D;}
</style>
<g>
	<path class="st0" d="M86.8,308h110.4c10.9,0,19.8-8.9,19.8-19.8V98c0-10.9-8.9-19.8-19.8-19.8H86.8C75.9,78.2,67,87.1,67,98v190.2
		C67,299.1,75.9,308,86.8,308z M75,98c0-6.5,5.3-11.8,11.8-11.8h110.4c6.5,0,11.8,5.3,11.8,11.8v190.2c0,6.5-5.3,11.8-11.8,11.8
		H86.8c-6.5,0-11.8-5.3-11.8-11.8V98z"/>
	<path class="st0" d="M85,135h58c2.2,0,4-1.8,4-4v-26.2c0-2.2-1.8-4-4-4H85c-2.2,0-4,1.8-4,4V131C81,133.2,82.8,135,85,135z
		 M89,108.9h50V127H89V108.9z"/>
	<path class="st0" d="M161.5,108.9h37.7c2.2,0,4-1.8,4-4s-1.8-4-4-4h-37.7c-2.2,0-4,1.8-4,4S159.3,108.9,161.5,108.9z"/>
	<path class="st0" d="M161.5,121.9h37.7c2.2,0,4-1.8,4-4s-1.8-4-4-4h-37.7c-2.2,0-4,1.8-4,4C157.5,120.2,159.3,121.9,161.5,121.9z"
		/>
	<path class="st0" d="M161.5,135h37.7c2.2,0,4-1.8,4-4s-1.8-4-4-4h-37.7c-2.2,0-4,1.8-4,4S159.3,135,161.5,135z"/>
	<path class="st0" d="M177.5,238c11.6,0,21-9.4,21-21s-9.4-21-21-21s-21,9.4-21,21S165.9,238,177.5,238z M177.5,204
		c7.2,0,13,5.8,13,13s-5.8,13-13,13s-13-5.8-13-13S170.3,204,177.5,204z"/>
	<circle class="st0" cx="177.5" cy="217" r="5.8"/>
	<circle class="st0" cx="177.5" cy="269" r="5.8"/>
	<path class="st0" d="M177.5,290c11.6,0,21-9.4,21-21s-9.4-21-21-21s-21,9.4-21,21S165.9,290,177.5,290z M177.5,256
		c7.2,0,13,5.8,13,13s-5.8,13-13,13s-13-5.8-13-13S170.3,256,177.5,256z"/>
	<path class="st0" d="M145.5,265h-6v-6c0-2.2-1.8-4-4-4s-4,1.8-4,4v6h-6c-2.2,0-4,1.8-4,4s1.8,4,4,4h6v6c0,2.2,1.8,4,4,4s4-1.8,4-4
		v-6h6c2.2,0,4-1.8,4-4S147.7,265,145.5,265z"/>
	<path class="st0" d="M125.5,213c-2.2,0-4,1.8-4,4s1.8,4,4,4h20c2.2,0,4-1.8,4-4s-1.8-4-4-4H125.5z"/>
	<path class="st0" d="M293,17h-8.4v-3c0-2.2-1.8-4-4-4s-4,1.8-4,4v3h-6.5v-3c0-2.2-1.8-4-4-4s-4,1.8-4,4v3H140c-2.2,0-4,1.8-4,4
		s1.8,4,4,4h122.1v6.9h-0.3c-2.2,0-4,1.8-4,4v97.8c0,2.2,1.8,4,4,4h7.5v86.5c0,19.5-15.9,35.4-35.4,35.4H231V65c0-2.2-1.8-4-4-4H57
		c-2.2,0-4,1.8-4,4v253c0,2.2,1.8,4,4,4h8.5v14c0,2.2,1.8,4,4,4h17c2.2,0,4-1.8,4-4v-14h103v14c0,2.2,1.8,4,4,4h17c2.2,0,4-1.8,4-4
		v-14h8.5c2.2,0,4-1.8,4-4v-50.3h2.9c24,0,43.4-19.5,43.4-43.4v-86.5h7.5c2.2,0,4-1.8,4-4V35.9c0-2.2-1.8-4-4-4h-0.3V25h8.4
		c2.2,0,4-1.8,4-4S295.2,17,293,17z M82.5,332h-9v-10h9V332z M210.5,332h-9v-10h9V332z M223,314H61V69h162V314z M280.9,100.2h-15v-7
		h15V100.2z M265.9,108.2h15v7h-15V108.2z M280.9,39.9v45.3h-15V39.9H280.9z M265.9,129.7v-6.5h15v6.5H265.9L265.9,129.7z
		 M276.6,31.9h-6.5V25h6.5V31.9z"/>
</g>
</svg>
