<?xml version="1.0" encoding="utf-8"?>
<!-- Generator: Adobe Illustrator 23.0.2, SVG Export Plug-In . SVG Version: 6.00 Build 0)  -->
<svg version="1.1" id="Capa_1" xmlns="http://www.w3.org/2000/svg" xmlns:xlink="http://www.w3.org/1999/xlink" x="0px" y="0px"
	 viewBox="0 0 612 612" style="enable-background:new 0 0 612 612;" xml:space="preserve">
<style type="text/css">
	.st0{fill:#1F325C;}
	.st1{fill:#79B51D;}
</style>
<g>
	<path class="st0" d="M193,469.1h179.2c17.7,0,32.1-14.4,32.1-32.1V203.7c0-17.7-14.4-32.1-32.1-32.1H193
		c-17.7,0-32.1,14.4-32.1,32.1v233.2C160.8,454.6,175.3,469.1,193,469.1z M173.8,203.7c0-10.5,8.6-19.1,19.1-19.1h179.2
		c10.5,0,19.1,8.6,19.1,19.1v233.2c0,10.5-8.6,19.1-19.1,19.1H193c-10.5,0-19.1-8.6-19.1-19.1V203.7z"/>
	<path class="st0" d="M190,263.8h94.1c3.6,0,6.5-2.9,6.5-6.5v-42.5c0-3.6-2.9-6.5-6.5-6.5H190c-3.6,0-6.5,2.9-6.5,6.5v42.5
		C183.5,260.9,186.5,263.8,190,263.8z M196.5,221.4h81.1v29.4h-81.1V221.4z"/>
	<path class="st0" d="M314.2,221.4h61.2c3.6,0,6.5-2.9,6.5-6.5s-2.9-6.5-6.5-6.5h-61.2c-3.6,0-6.5,2.9-6.5,6.5
		S310.6,221.4,314.2,221.4z"/>
	<path class="st0" d="M314.2,242.5h61.2c3.6,0,6.5-2.9,6.5-6.5c0-3.6-2.9-6.5-6.5-6.5h-61.2c-3.6,0-6.5,2.9-6.5,6.5
		C307.7,239.8,310.6,242.5,314.2,242.5z"/>
	<path class="st0" d="M314.2,263.8h61.2c3.6,0,6.5-2.9,6.5-6.5c0-3.6-2.9-6.5-6.5-6.5h-61.2c-3.6,0-6.5,2.9-6.5,6.5
		C307.7,260.9,310.6,263.8,314.2,263.8z"/>
	<path class="st0" d="M340.1,355.5c18.8,0,34.1-15.3,34.1-34.1c0-18.8-15.3-34.1-34.1-34.1c-18.8,0-34.1,15.3-34.1,34.1
		C306.1,340.2,321.3,355.5,340.1,355.5z M340.1,300.3c11.7,0,21.1,9.4,21.1,21.1c0,11.7-9.4,21.1-21.1,21.1
		c-11.7,0-21.1-9.4-21.1-21.1C319,309.7,328.5,300.3,340.1,300.3z"/>
	<circle class="st0" cx="340.1" cy="321.4" r="9.4"/>
	<circle class="st0" cx="340.1" cy="405.8" r="9.4"/>
	<path class="st0" d="M340.1,439.9c18.8,0,34.1-15.3,34.1-34.1s-15.3-34.1-34.1-34.1c-18.8,0-34.1,15.3-34.1,34.1
		S321.3,439.9,340.1,439.9z M340.1,384.7c11.7,0,21.1,9.4,21.1,21.1s-9.4,21.1-21.1,21.1c-11.7,0-21.1-9.4-21.1-21.1
		S328.5,384.7,340.1,384.7z"/>
	<path class="st0" d="M288.2,399.3h-9.7v-9.7c0-3.6-2.9-6.5-6.5-6.5c-3.6,0-6.5,2.9-6.5,6.5v9.7h-9.7c-3.6,0-6.5,2.9-6.5,6.5
		s2.9,6.5,6.5,6.5h9.7v9.7c0,3.6,2.9,6.5,6.5,6.5c3.6,0,6.5-2.9,6.5-6.5v-9.7h9.7c3.6,0,6.5-2.9,6.5-6.5S291.8,399.3,288.2,399.3z"
		/>
	<path class="st0" d="M255.8,314.9c-3.6,0-6.5,2.9-6.5,6.5c0,3.6,2.9,6.5,6.5,6.5h32.5c3.6,0,6.5-2.9,6.5-6.5c0-3.6-2.9-6.5-6.5-6.5
		H255.8z"/>
	<path class="st1" d="M527.6,99.6h-13.6v-4.9c0-3.6-2.9-6.5-6.5-6.5c-3.6,0-6.5,2.9-6.5,6.5v4.9h-10.5v-4.9c0-3.6-2.9-6.5-6.5-6.5
		c-3.6,0-6.5,2.9-6.5,6.5v4.9H279.3c-3.6,0-6.5,2.9-6.5,6.5c0,3.6,2.9,6.5,6.5,6.5h198.1v11.2h-0.5c-3.6,0-6.5,2.9-6.5,6.5v158.7
		c0,3.6,2.9,6.5,6.5,6.5h12.2v37.6c0,31.6-25.8,57.4-57.4,57.4H427V150.2c0-3.6-2.9-6.5-6.5-6.5H144.6c-3.6,0-6.5,2.9-6.5,6.5v335.1
		c0,3.6,2.9,6.5,6.5,6.5h13.8v22.7c0,3.6,2.9,6.5,6.5,6.5h27.6c3.6,0,6.5-2.9,6.5-6.5v-22.7h167.1v22.7c0,3.6,2.9,6.5,6.5,6.5h27.6
		c3.6,0,6.5-2.9,6.5-6.5v-22.7h13.8c3.6,0,6.5-2.9,6.5-6.5v-81.6h4.7c38.9,0,70.4-31.6,70.4-70.4v-37.6h12.2c3.6,0,6.5-2.9,6.5-6.5
		V130.2c0-3.6-2.9-6.5-6.5-6.5h-0.5v-11.2h13.6c3.6,0,6.5-2.9,6.5-6.5C533.9,102.5,531.1,99.6,527.6,99.6z M186,508h-14.6v-16.2H186
		V508z M393.7,508h-14.6v-16.2h14.6V508z M414,478.8H151.1V156.7H414V478.8z M507.9,234.6h-24.3v-11.4h24.3V234.6z M483.6,247.6
		h24.3v11.4h-24.3V247.6z M507.9,136.7v73.5h-24.3v-73.5H507.9z M483.6,282.4v-10.5h24.3v10.5H483.6L483.6,282.4z M501,123.7h-10.5
		v-11.2H501V123.7z"/>
</g>
</svg>
