<?xml version="1.0" encoding="utf-8"?>
<!-- Generator: Adobe Illustrator 23.0.2, SVG Export Plug-In . SVG Version: 6.00 Build 0)  -->
<svg version="1.1" id="Capa_1" xmlns="http://www.w3.org/2000/svg" xmlns:xlink="http://www.w3.org/1999/xlink" x="0px" y="0px"
	 viewBox="0 0 612 612" style="enable-background:new 0 0 612 612;" xml:space="preserve">
<style type="text/css">
	.st0{fill:none;}
	.st1{fill:#79B51D;}
	.st2{fill:#002A74;}
</style>
<g>
	<polygon class="st0" points="286,89.2 265.3,109.9 306.7,109.9 	"/>
	<polygon class="st0" points="145.3,85.9 166,106.6 186.7,85.9 	"/>
	<polygon class="st0" points="105.3,109.9 146.7,109.9 126,89.2 	"/>
	<polygon class="st0" points="225.3,85.9 246,106.6 266.7,85.9 	"/>
	<polygon class="st0" points="185.3,109.9 226.7,109.9 206,89.2 	"/>
	<path class="st0" d="M91,182.7c-7.2,7.6-6.9,19.5,0.6,26.7l26.9,25.7l44.2-46.4l-26.9-25.6c-3.5-3.3-8.1-5.2-13-5.2h-0.4
		c-5,0.1-9.8,2.2-13.2,5.8L91,182.7z"/>
	<polygon class="st0" points="465.3,85.9 486,106.6 506.7,85.9 	"/>
	<path class="st0" d="M270,176.8v37.1h64h0.1v-37.1c-0.1-10.5-8.5-18.9-18.9-18.9h-26.3C278.4,158,270,166.4,270,176.8z"/>
	<path class="st0" d="M488.4,166.9c-0.1,0-0.1,0-0.1,0c-9.8-3.4-20.5,1.9-23.9,11.8l-12,35.1l60.6,20.7l12-35.1
		c3.4-9.8-1.9-20.6-11.7-24L488.4,166.9z"/>
	<polygon class="st0" points="425.3,109.9 466.7,109.9 446,89.2 	"/>
	<polygon class="st0" points="385.3,85.9 406,106.6 426.7,85.9 	"/>
	<polygon class="st0" points="345.3,109.9 386.7,109.9 366,89.2 	"/>
	<polygon class="st0" points="305.3,85.9 326,106.6 346.7,85.9 	"/>
	<path class="st1" d="M542,109.9h-36.7l24-24H542c4.4,0,8-3.6,8-8c0-4.4-3.6-8-8-8H70c-4.4,0-8,3.6-8,8c0,4.4,3.6,8,8,8h36.7l-24,24
		H70c-4.4,0-8,3.6-8,8c0,4.4,3.6,8,8,8h24.3L94,156.5l-14.6,15.3c-13.3,13.9-12.8,36,1.1,49.3l32.6,31.2c1.5,1.4,3.5,2.2,5.5,2.2
		h0.2c1,0,1.9-0.3,2.8-0.6l59.9-62.6c1.1-2.9,0.4-6.4-2-8.6l-32.6-31.2c-6.6-6.4-15.6-9.9-24.9-9.6c-4.1,0.1-8.1,1-11.9,2.5
		l0.2-18.5H294v16h-5.1c-19.2,0-34.8,15.6-34.9,34.9v45.1c0,1.6,0.5,3,1.2,4.3l6.4,3.7l81-0.2c4.2-0.2,7.5-3.7,7.5-7.9v-45.1
		c0-19.2-15.6-34.8-34.9-34.9H310v-16h192v28.8l-8.5-2.9c-18.2-6.1-38,3.6-44.2,21.8l-14.6,42.7c-0.7,2-0.5,4.2,0.4,6.1l82.9,30.4
		c3.4,0,6.5-2.2,7.6-5.4l14.6-42.7c6.2-18.2-3.5-38-21.7-44.2l-0.4-0.2v-34.3h24c4.4,0,8-3.6,8-8C550.1,113.5,546.4,109.9,542,109.9
		z M122.4,157.9h0.4c4.9,0,9.5,1.9,13,5.2l26.9,25.6l-44.2,46.4l-26.9-25.7c-7.5-7.2-7.8-19.1-0.6-26.7l18.2-19
		C112.6,160.1,117.4,158,122.4,157.9z M105.3,109.9L126,89.2l20.7,20.7H105.3z M145.3,85.9h41.4L166,106.6L145.3,85.9z M185.3,109.9
		L206,89.2l20.7,20.7H185.3z M225.3,85.9h41.4L246,106.6L225.3,85.9z M265.3,109.9L286,89.2l20.7,20.7H265.3z M315.2,157.9
		c10.4,0,18.8,8.4,18.9,18.9v37.1H334h-64v-37.1c0-10.4,8.4-18.8,18.9-18.9H315.2z M305.3,85.9h41.4L326,106.6L305.3,85.9z
		 M345.3,109.9L366,89.2l20.7,20.7H345.3z M385.3,85.9h41.4L406,106.6L385.3,85.9z M425.3,109.9L446,89.2l20.7,20.7H425.3z
		 M486,106.6l-20.7-20.7h41.4L486,106.6z M525,199.4l-12,35.1l-60.6-20.7l12-35.1c3.4-9.9,14.1-15.2,23.9-11.8c0,0,0,0,0.1,0
		l24.9,8.5C523.1,178.8,528.4,189.6,525,199.4z"/>
	<path class="st2" d="M435.6,222.9l-63,90l-30-83.2l-81,0.2l-5.3,16L177.9,196l1.9-2c0.8-0.8,1.3-1.7,1.7-2.7l-59.9,62.6L210.8,382
		l-44.5,133.4c-1.4,4.2,0.9,8.7,5.1,10.1c4.2,1.4,8.7-0.9,10.1-5.1l40.7-122.1l25.1,36.1c2.5,3.6,7.5,4.5,11.1,2
		c3.6-2.5,4.5-7.5,2-11.1l-32-45.9l49-147c0.2-0.8,0.4-1.7,0.3-2.5h48.2c0,0.9,0.1,1.8,0.4,2.7l34.8,96.4l-33.8,48.3
		c-2.6,3.5-1.9,8.6,1.6,11.2c3.5,2.6,8.6,1.9,11.2-1.6c0.1-0.1,0.2-0.3,0.3-0.4l27.4-39.1l62.6,173.2c1.1,3.2,4.2,5.3,7.5,5.3
		c0.9,0,1.8-0.2,2.7-0.5c4.2-1.5,6.3-6.1,4.8-10.2L379,331.4L450,230l50.9,17.4L446.2,468c-1.1,4.3,1.5,8.6,5.8,9.7
		c0.6,0.2,1.3,0.2,2,0.2c3.7,0,6.9-2.5,7.8-6.1l54.5-219.4c0.5,0.2,1.1,0.2,1.7,0.3l-82.9-30.4C435.2,222.5,435.4,222.7,435.6,222.9
		z M217.2,363l-83.8-120.4l33.2-34.8l83.1,52.9c0.4,0.3,0.9,0.5,1.4,0.6L217.2,363z"/>
	<path class="st1" d="M261.6,229.9l-6.4-3.7C256.6,228.3,258.9,229.8,261.6,229.9z"/>
</g>
</svg>
