<?xml version="1.0" encoding="utf-8"?>
<!-- Generator: Adobe Illustrator 23.0.2, SVG Export Plug-In . SVG Version: 6.00 Build 0)  -->
<svg version="1.1" id="Capa_1" xmlns="http://www.w3.org/2000/svg" xmlns:xlink="http://www.w3.org/1999/xlink" x="0px" y="0px"
	 viewBox="0 0 488 488" style="enable-background:new 0 0 488 488;" xml:space="preserve">
<style type="text/css">
	.st0{fill:#79B51D;}
</style>
<g>
	<g>
		<path class="st0" d="M480,47.9h-36.7l24-24H480c4.4,0,8-3.6,8-8s-3.6-8-8-8H8c-4.4,0-8,3.6-8,8s3.6,8,8,8h36.7l-24,24H8
			c-4.4,0-8,3.6-8,8s3.6,8,8,8h24.3L32,94.5l-14.6,15.3c-13.3,13.9-12.8,36,1.1,49.3l32.6,31.2c1.5,1.4,3.5,2.2,5.5,2.2h0.2
			c1,0,1.9-0.3,2.8-0.6l89.2,128.1l-44.5,133.4c-1.4,4.2,0.9,8.7,5.1,10.1s8.7-0.9,10.1-5.1l40.7-122.1l25.1,36.1
			c2.5,3.6,7.5,4.5,11.1,2s4.5-7.5,2-11.1l-32-45.9l49-147c0.2-0.8,0.4-1.7,0.3-2.5h48.2c0,0.9,0.1,1.8,0.4,2.7l34.8,96.4
			l-33.8,48.3c-2.6,3.5-1.9,8.6,1.6,11.2s8.6,1.9,11.2-1.6c0.1-0.1,0.2-0.3,0.3-0.4l27.4-39.1l62.6,173.2c1.1,3.2,4.2,5.3,7.5,5.3
			c0.9,0,1.8-0.2,2.7-0.5c4.2-1.5,6.3-6.1,4.8-10.2l-66.4-183.8l71-101.4l50.9,17.4L384.2,406c-1.1,4.3,1.5,8.6,5.8,9.7c0,0,0,0,0,0
			c0.6,0.2,1.3,0.2,2,0.2c3.7,0,6.9-2.5,7.8-6.1l54.5-219.4c0.5,0.2,1.1,0.2,1.7,0.3c3.4,0,6.5-2.2,7.6-5.4l14.6-42.7
			c6.2-18.2-3.5-38-21.7-44.2l-0.4-0.2V63.9h24c4.4,0,8-3.6,8-8S484.4,47.9,480,47.9z M444.7,23.9L424,44.6l-20.7-20.7
			C403.3,23.9,444.7,23.9,444.7,23.9z M404.7,47.9h-41.4L384,27.2L404.7,47.9z M364.7,23.9L344,44.6l-20.7-20.7
			C323.3,23.9,364.7,23.9,364.7,23.9z M324.7,47.9h-41.4L304,27.2L324.7,47.9z M284.7,23.9L264,44.6l-20.7-20.7
			C243.3,23.9,284.7,23.9,284.7,23.9z M244.7,47.9h-41.4L224,27.2L244.7,47.9z M204.7,23.9L184,44.6l-20.7-20.7
			C163.3,23.9,204.7,23.9,204.7,23.9z M164.7,47.9h-41.4L144,27.2L164.7,47.9z M124.7,23.9L104,44.6L83.3,23.9H124.7z M64,27.2
			l20.7,20.7H43.3L64,27.2z M56.5,173.1l-26.9-25.7c-7.5-7.2-7.8-19.1-0.6-26.7l18.2-19c3.4-3.6,8.2-5.7,13.2-5.8h0.4
			c4.9,0,9.5,1.9,13,5.2l26.9,25.6L56.5,173.1z M155.2,301L71.4,180.6l33.2-34.8l83.1,52.9c0.4,0.3,0.9,0.5,1.4,0.6L155.2,301z
			 M199.6,167.9l-5.3,16L115.9,134l1.9-2c3.1-3.2,2.9-8.3-0.3-11.3l0,0L84.9,89.5c-6.6-6.4-15.6-9.9-24.9-9.6
			c-4.1,0.1-8.1,1-11.9,2.5l0.2-18.5H232v16h-5.1c-19.2,0-34.8,15.6-34.9,34.9v45.1C192,164.2,195.4,167.7,199.6,167.9z M272,151.9
			h-64v-37.1c0-10.4,8.4-18.8,18.9-18.9h26.3c10.4,0,18.8,8.4,18.9,18.9V151.9z M387.3,111.5l-14.6,42.7c-0.7,2-0.5,4.2,0.4,6.1
			c0.1,0.2,0.3,0.4,0.5,0.6l-63,90l-30-83.2c4.2-0.2,7.5-3.7,7.5-7.9v-45.1c0-19.2-15.6-34.8-34.9-34.9H248v-16h192v28.8l-8.5-2.9
			C413.3,83.6,393.5,93.3,387.3,111.5z M463,137.4l-12,35.1l-60.6-20.7l12-35.1c3.4-9.9,14.1-15.2,23.9-11.8c0,0,0,0,0.1,0l24.9,8.5
			C461.1,116.8,466.4,127.6,463,137.4z"/>
	</g>
</g>
</svg>
