<?xml version="1.0" encoding="utf-8"?>
<!-- Generator: Adobe Illustrator 23.0.2, SVG Export Plug-In . SVG Version: 6.00 Build 0)  -->
<svg version="1.1" id="Capa_1" xmlns="http://www.w3.org/2000/svg" xmlns:xlink="http://www.w3.org/1999/xlink" x="0px" y="0px"
	 viewBox="0 0 430 430" style="enable-background:new 0 0 430 430;" xml:space="preserve">
<style type="text/css">
	.st0{fill:#002A74;}
</style>
<path class="st0" d="M428.4,275.9l-31.7-33.3c-1.1-1.2-2.7-1.8-4.3-1.8h-13.8c0,0,0,0,0,0v-7.7c0-3.7-3-6.8-6.8-6.8
	c-3.7,0-6.8,3-6.8,6.8v7.7c0,0,0,0,0,0h-89v-22l93.8-93.8c4.6-4.6,4.6-12.1,0-16.7c-4.6-4.6-12.1-4.6-16.7,0l-95,95h-15.2v37.5
	h-12.7V138.5c0-3.3-2.6-5.9-5.9-5.9H217v-3.8c0-3.7-3-6.8-6.8-6.8c-3.7,0-6.8,3-6.8,6.8v3.8h-52.3c-1.7,0-3.3,0.7-4.4,2l-56.3,63.3
	H59.8c-0.5,0-1.1,0-1.6,0c-29.1,0-40.8,21.3-42.9,32.9l-1.6,5.6H7.2c-4,0-7.2,3.2-7.2,7.2v35.1c0,3.1,1.9,5.7,4.6,6.7
	c0.7,0.3,1.5,0.5,2.3,0.5h0.3h18.4c1.6,21.9,20,39.3,42.3,39.3c22.3,0,40.7-17.3,42.3-39.3h198.6c1.6,21.9,20,39.3,42.3,39.3
	c22.3,0,40.7-17.3,42.3-39.3h30.8c2.4,0,4.5-1.4,5.4-3.6C430.5,280.1,430,277.6,428.4,275.9z M67.9,304c-11.7,0-21.3-9.5-21.3-21.3
	s9.5-21.3,21.3-21.3c11.7,0,21.3,9.5,21.3,21.3S79.6,304,67.9,304z M203.9,193.9h-70.4l34.4-40.1h36V193.9z M351,304
	c-11.7,0-21.3-9.5-21.3-21.3s9.5-21.3,21.3-21.3c11.7,0,21.3,9.5,21.3,21.3S362.7,304,351,304z"/>
</svg>
