<?xml version="1.0" encoding="utf-8"?>
<!-- Generator: Adobe Illustrator 23.0.2, SVG Export Plug-In . SVG Version: 6.00 Build 0)  -->
<svg version="1.1" id="Capa_1" xmlns="http://www.w3.org/2000/svg" xmlns:xlink="http://www.w3.org/1999/xlink" x="0px" y="0px"
	 viewBox="0 0 50 50" style="enable-background:new 0 0 50 50;" xml:space="preserve">
<style type="text/css">
	.st0{fill:#79B51D;}
	.st1{fill:#FFFFFF;}
	.st2{font-family:'CaviarDreams-Bold';}
	.st3{font-size:16.8601px;}
</style>
<path class="st0" d="M41.1,50H8.9C4,50,0,46,0,41.1V-91.4c0-4.9,4-8.9,8.9-8.9h32.1c4.9,0,8.9,4,8.9,8.9V41.1C50,46,46,50,41.1,50z"
	/>
<g>
	<g>
		<path class="st1" d="M39.6-89.7H10.4c-2.6,0-4.7,2.1-4.7,4.7v20c0,2.6,2.1,4.7,4.7,4.7h29.2c2.6,0,4.7-2.1,4.7-4.7v-20
			C44.4-87.6,42.3-89.7,39.6-89.7z M42.2-65c0,1.4-1.1,2.6-2.6,2.6H10.4c-1.4,0-2.6-1.1-2.6-2.6v-20c0-1.4,1.1-2.6,2.6-2.6h29.2
			c1.4,0,2.6,1.1,2.6,2.6L42.2-65L42.2-65z"/>
		<path class="st1" d="M30.1-75.3l9.5-8.5c0.4-0.4,0.5-1.1,0.1-1.5c-0.4-0.4-1.1-0.5-1.5-0.1L25-73.6l-2.6-2.3l0,0
			c0,0-0.1-0.1-0.2-0.1l-10.4-9.3c-0.4-0.4-1.1-0.3-1.5,0.1s-0.3,1.1,0.1,1.5l9.6,8.5l-9.5,8.9c-0.4,0.4-0.4,1.1,0,1.5
			c0.2,0.2,0.5,0.3,0.8,0.3c0.2,0,0.5-0.1,0.7-0.3l9.7-9.1l2.6,2.4c0.2,0.2,0.4,0.3,0.7,0.3c0.2,0,0.5-0.1,0.7-0.3l2.7-2.4l9.6,9.1
			c0.2,0.2,0.5,0.3,0.7,0.3c0.3,0,0.6-0.1,0.8-0.3c0.4-0.4,0.4-1.1,0-1.5L30.1-75.3z"/>
	</g>
</g>
<path id="WhatsApp_2_" class="st1" d="M42.3-25.5c0,9.3-7.6,16.9-17,16.9c-3,0-5.8-0.8-8.2-2.1l-9.4,3l3.1-9.1
	c-1.6-2.6-2.4-5.5-2.4-8.7c0-9.3,7.6-16.9,17-16.9C34.7-42.4,42.3-34.8,42.3-25.5z M25.3-39.6c-7.9,0-14.3,6.3-14.3,14.2
	c0,3.1,1,6,2.7,8.3l-1.8,5.3l5.5-1.8c2.3,1.5,5,2.3,7.9,2.3c7.9,0,14.3-6.3,14.3-14.2S33.2-39.6,25.3-39.6z M33.9-21.6
	c-0.1-0.2-0.4-0.3-0.8-0.5c-0.4-0.2-2.5-1.2-2.9-1.3c-0.4-0.2-0.6-0.2-1,0.2c-0.3,0.4-1.1,1.3-1.3,1.6c-0.2,0.3-0.5,0.3-0.9,0.1
	c-0.4-0.2-1.8-0.6-3.4-2.1c-1.2-1.1-2.1-2.4-2.3-2.9c-0.2-0.4,0-0.6,0.2-0.8c0.2-0.2,0.4-0.5,0.6-0.7c0.2-0.2,0.3-0.4,0.4-0.7
	s0.1-0.5,0-0.7c-0.1-0.2-1-2.3-1.3-3.1c-0.3-0.8-0.7-0.7-1-0.7c-0.2,0-0.5,0-0.8,0s-0.7,0.1-1.1,0.5c-0.4,0.4-1.5,1.4-1.5,3.4
	s1.5,4,1.7,4.3c0.2,0.3,2.9,4.6,7.1,6.2s4.2,1.1,5,1c0.8-0.1,2.5-1,2.8-1.9C34-20.6,34-21.4,33.9-21.6z"/>
<text transform="matrix(1 0 0 1 2.9412 30.104)" class="st1 st2 st3">Login</text>
</svg>
