<?xml version="1.0" encoding="iso-8859-1"?>
<!-- Generator: Adobe Illustrator 19.0.0, SVG Export Plug-In . SVG Version: 6.00 Build 0)  -->
<svg version="1.1" id="Capa_1" xmlns="http://www.w3.org/2000/svg" xmlns:xlink="http://www.w3.org/1999/xlink" x="0px" y="0px"
	 viewBox="0 0 462.622 462.622" style="enable-background:new 0 0 462.622 462.622;" xml:space="preserve">
<g>
	<path d="M103.122,247.811c-21.78,0-39.5,17.72-39.5,39.5s17.72,39.5,39.5,39.5s39.5-17.72,39.5-39.5
		S124.902,247.811,103.122,247.811z M103.122,311.811c-13.509,0-24.5-10.991-24.5-24.5s10.991-24.5,24.5-24.5s24.5,10.991,24.5,24.5
		S116.631,311.811,103.122,311.811z"/>
	<path d="M359.122,247.811c-21.78,0-39.5,17.72-39.5,39.5s17.72,39.5,39.5,39.5s39.5-17.72,39.5-39.5
		S380.902,247.811,359.122,247.811z M359.122,311.811c-13.509,0-24.5-10.991-24.5-24.5s10.991-24.5,24.5-24.5s24.5,10.991,24.5,24.5
		S372.631,311.811,359.122,311.811z"/>
	<path d="M455.122,239.811c-0.169,0-0.334,0.014-0.5,0.025v-27.681c0-10.556-5.244-20.354-14.027-26.209l-11.656-7.771
		l-16.476-32.951c-5.37-10.741-16.166-17.413-28.174-17.413h-81.167c-4.142,0-7.5,3.358-7.5,7.5v32.5h-17v-56.5
		c0-0.276,0.224-0.5,0.5-0.5h136c4.142,0,7.5-3.358,7.5-7.5s-3.358-7.5-7.5-7.5h-136c-8.547,0-15.5,6.953-15.5,15.5v0.5H7.501
		c-3.199,0-6.045,2.028-7.089,5.052c-1.044,3.023-0.056,6.376,2.461,8.35l105.578,82.797c-1.763-0.117-3.536-0.199-5.329-0.199
		c-43.836,0-79.5,35.664-79.5,79.5s35.664,79.5,79.5,79.5c35.659,0,65.907-23.6,75.952-56h12.548v0.5c0,8.547,6.953,15.5,15.5,15.5
		h48c8.547,0,15.5-6.953,15.5-15.5v-0.5h12.548c10.046,32.4,40.294,56,75.952,56c43.836,0,79.5-35.664,79.5-79.5
		c0-0.168-0.012-0.333-0.013-0.5h0.513c12.958,0,23.5-10.542,23.5-23.5v-16C462.622,243.169,459.264,239.811,455.122,239.811z
		 M406.486,166.811l4.5,9h-63.865c-2.481,0-4.5-2.019-4.5-4.5s2.019-4.5,4.5-4.5H406.486z M310.622,142.811h73.667
		c6.244,0,11.858,3.447,14.692,9h-51.859c-10.752,0-19.5,8.748-19.5,19.5s8.748,19.5,19.5,19.5h73.73l11.423,7.615
		c4.601,3.067,7.347,8.2,7.347,13.729v27.656h-16.5c-0.094,0-0.186,0.011-0.279,0.014c-14.509-19.419-37.671-32.014-63.721-32.014
		c-18.248,0-35.067,6.195-48.5,16.572V142.811z M295.622,182.811v56.5c0,0.072,0.009,0.142,0.011,0.214
		c-3.775,5.003-6.967,10.466-9.489,16.286h-7.522v-73H295.622z M263.622,126.811v129h-60.947c-5.78,0-11.467-1.964-16.015-5.531
		L29.218,126.811H263.622z M103.122,351.811c-35.565,0-64.5-28.935-64.5-64.5s28.935-64.5,64.5-64.5s64.5,28.935,64.5,64.5
		S138.687,351.811,103.122,351.811z M255.622,311.311c0,0.276-0.224,0.5-0.5,0.5h-48c-0.276,0-0.5-0.224-0.5-0.5v-16
		c0-0.276,0.224-0.5,0.5-0.5h48c0.276,0,0.5,0.224,0.5,0.5V311.311z M270.622,295.811v-0.5c0-8.547-6.953-15.5-15.5-15.5h-48
		c-8.547,0-15.5,6.953-15.5,15.5v0.5h-9.46c0.298-2.794,0.46-5.628,0.46-8.5c0-8.413-1.324-16.52-3.757-24.137
		c6.914,4.935,15.298,7.637,23.81,7.637h78.681c-1.129,5.326-1.733,10.843-1.733,16.5c0,2.872,0.162,5.706,0.46,8.5H270.622z
		 M359.122,351.811c-35.565,0-64.5-28.935-64.5-64.5s28.935-64.5,64.5-64.5s64.5,28.935,64.5,64.5S394.687,351.811,359.122,351.811z
		 M439.122,271.811h-2.028c-1.177-5.931-3.026-11.62-5.447-17h15.475c0.169,0,0.334-0.014,0.5-0.025v8.525
		C447.622,267.998,443.809,271.811,439.122,271.811z"/>
	<path d="M239.122,238.811c4.142,0,7.5-3.358,7.5-7.5v-80c0-4.142-3.358-7.5-7.5-7.5s-7.5,3.358-7.5,7.5v80
		C231.622,235.453,234.98,238.811,239.122,238.811z"/>
	<path d="M207.122,238.811c4.142,0,7.5-3.358,7.5-7.5v-80c0-4.142-3.358-7.5-7.5-7.5s-7.5,3.358-7.5,7.5v80
		C199.622,235.453,202.98,238.811,207.122,238.811z"/>
	<path d="M175.122,143.811c-4.142,0-7.5,3.358-7.5,7.5v56c0,4.142,3.358,7.5,7.5,7.5s7.5-3.358,7.5-7.5v-56
		C182.622,147.169,179.264,143.811,175.122,143.811z"/>
	<path d="M143.122,143.811c-4.142,0-7.5,3.358-7.5,7.5v32c0,4.142,3.358,7.5,7.5,7.5s7.5-3.358,7.5-7.5v-32
		C150.622,147.169,147.264,143.811,143.122,143.811z"/>
	<path d="M111.122,143.811c-4.142,0-7.5,3.358-7.5,7.5v8c0,4.142,3.358,7.5,7.5,7.5s7.5-3.358,7.5-7.5v-8
		C118.622,147.169,115.264,143.811,111.122,143.811z"/>
</g>
<g>
</g>
<g>
</g>
<g>
</g>
<g>
</g>
<g>
</g>
<g>
</g>
<g>
</g>
<g>
</g>
<g>
</g>
<g>
</g>
<g>
</g>
<g>
</g>
<g>
</g>
<g>
</g>
<g>
</g>
</svg>
