<?xml version="1.0" encoding="utf-8"?>
<!-- Generator: Adobe Illustrator 23.0.2, SVG Export Plug-In . SVG Version: 6.00 Build 0)  -->
<svg version="1.1" id="Capa_1" xmlns="http://www.w3.org/2000/svg" xmlns:xlink="http://www.w3.org/1999/xlink" x="0px" y="0px"
	 viewBox="0 0 103.4 103.4" style="enable-background:new 0 0 103.4 103.4;" xml:space="preserve">
<style type="text/css">
	.st0{fill:#FFFFFF;}
	.st1{fill:#79B51D;}
</style>
<g>
	<path class="st0" d="M11.8,72.5c-4-7.1-6-15-6-23.2c0-26.3,21.6-47.8,48.1-47.8S102,22.9,102,49.3S80.4,97.1,53.9,97.1
		c-7.6,0-15.1-1.8-21.9-5.2l-30,9.5L11.8,72.5z M35.3,77.2c5.5,3.6,12,5.5,18.6,5.5c18.6,0,33.8-15,33.8-33.5
		c0-18.5-15.2-33.5-33.8-33.5c-18.6,0-33.8,15-33.8,33.5c0,7.1,2.2,13.9,6.4,19.6l1.1,1.5l-3,8.8l9.2-2.9L35.3,77.2z M65.9,73.7
		c-1.8,0-4.5-0.4-12-3.3c-7.3-2.8-14.4-9-20.1-17.3c-1.7-2.2-5.3-7.7-5.3-13.6c0-6.4,3.3-10,4.6-11.3c1.7-1.8,3.7-2.7,5.8-2.7
		c0.5,0,0.9,0,1.3,0.1c0.3,0,0.5,0,0.7,0l0.5,0c1.6,0,3.9,0.7,5.3,4.1l1.2,2.9c0.9,2.1,1.9,4.5,2.1,5c1.1,2.2,0.6,4,0.1,5.1
		c-0.4,0.9-0.8,1.6-1.6,2.5c0,0-0.8,1-1,1.1c0.9,1.4,2.5,3.6,4.6,5.4c2.9,2.6,5.5,3.7,6.9,4.4c0.9-1.1,1.9-2.3,2.3-2.8
		c1.4-2.1,3.3-2.4,4.3-2.4c0.9,0,1.7,0.2,2.4,0.5c1.4,0.5,7.8,3.6,7.8,3.7l0.6,0.3c1,0.5,2.2,1.1,3,2.3c1.6,2.7-0.1,7.7-0.3,8.3
		c-1.5,4.1-7.3,7.2-10.5,7.5c-0.1,0-0.3,0.1-0.4,0.1C67.8,73.6,67,73.7,65.9,73.7z"/>
	<path id="WhatsApp_1_" class="st1" d="M98.4,49.3c0,24.4-19.9,44.1-44.5,44.1c-7.8,0-15.1-2-21.5-5.5L7.7,95.8l8-23.7
		c-4.1-6.7-6.4-14.5-6.4-22.8c0-24.4,19.9-44.1,44.5-44.1C78.4,5.1,98.4,24.9,98.4,49.3z M53.9,12.2c-20.6,0-37.4,16.6-37.4,37.1
		c0,8.1,2.6,15.6,7.1,21.8l-4.7,13.8l14.4-4.6c5.9,3.9,13,6.1,20.6,6.1c20.6,0,37.4-16.6,37.4-37.1S74.5,12.2,53.9,12.2z M76.3,59.5
		c-0.3-0.5-1-0.7-2.1-1.3c-1.1-0.5-6.5-3.2-7.5-3.5c-1-0.4-1.7-0.5-2.5,0.5c-0.7,1.1-2.8,3.5-3.5,4.2c-0.6,0.7-1.3,0.8-2.4,0.3
		c-1.1-0.5-4.6-1.7-8.8-5.4c-3.2-2.9-5.4-6.4-6.1-7.5c-0.6-1.1-0.1-1.7,0.5-2.2c0.5-0.5,1.1-1.3,1.6-1.9c0.5-0.6,0.7-1.1,1.1-1.8
		c0.4-0.7,0.2-1.4-0.1-1.9c-0.3-0.5-2.5-5.9-3.4-8c-0.9-2.2-1.8-1.8-2.5-1.8c-0.6,0-1.4-0.1-2.1-0.1c-0.7,0-1.9,0.3-2.9,1.4
		c-1,1.1-3.8,3.7-3.8,9c0,5.3,3.9,10.5,4.5,11.2c0.5,0.7,7.5,12,18.6,16.3c11.1,4.3,11.1,2.9,13.1,2.7c2-0.2,6.5-2.6,7.4-5.1
		C76.6,62.1,76.6,59.9,76.3,59.5z"/>
	<path d="M36.1,68.9"/>
</g>
</svg>
