<?xml version="1.0" encoding="utf-8"?>
<!-- Generator: Adobe Illustrator 23.0.2, SVG Export Plug-In . SVG Version: 6.00 Build 0)  -->
<svg version="1.1" id="Capa_1" xmlns="http://www.w3.org/2000/svg" xmlns:xlink="http://www.w3.org/1999/xlink" x="0px" y="0px"
	 viewBox="0 0 450 216" style="enable-background:new 0 0 450 216;" xml:space="preserve">
<style type="text/css">
	.st0{fill:#75A93A;}
	.st1{fill:#11277C;}
	.st2{fill:#00296E;}
	.st3{fill:#070308;}
	.st4{fill:#201813;}
	.st5{fill:none;stroke:#75A93A;stroke-width:4;stroke-miterlimit:10;}
	.st6{fill:#606060;}
</style>
<g>
	<path class="st0" d="M433.7,59.9c-4.4-17.2-14-30.7-29.5-39.4C385.5,9.9,366,8.8,346.3,17.7c-18.7,8.4-30,23-35.1,42.7
		c-0.3,1.3-0.3,2.1,1.5,2l19.5,0.1c2,0.1,2.8-0.6,3.6-2.5c6.4-15.4,18-23.8,34.6-24.9c16.8-1.1,32.8,9,38.6,24.6
		c0.9,2.3,1.8,2.7,3.9,2.7c6.2-0.1,12.3-0.2,18.5,0C433.6,62.4,434.2,61.8,433.7,59.9z"/>
	<path class="st1" d="M431.3,84.5c-6.2,0.2-12.4,0.2-18.5,0c-2.2-0.1-3,0.8-3.9,2.7c-6.6,15-18.3,23.1-34.4,24
		c-14.9,0.8-26.6-5.7-35.1-18.1c-1.7-2.4-1.8-6.2-4.1-7.8l-23.1-0.2c-0.9,0.7-0.4,2.2,0.7,5.7c9.3,29.8,39.8,48.2,70.8,42.3
		c25.9-4.9,42.5-20.4,49.9-45.7C434.2,85.2,433.8,84.4,431.3,84.5z"/>
	<path class="st0" d="M76.3,85.3c3.4-4.6,5.4-10,7.9-15.1c9.2-18.6,18.2-37.3,27.2-56c1.2-2.4,2.5-3.4,5.3-3.3
		c6.7,0.3,13.4,0.2,20.2,0.2c0.4,2.4-1.1,4.3-2.1,6.2c-2,3.9-4,7.8-5.7,11.8c-0.6,1.3-1.2,2.7-2.6,3.4c-4.5,7.5-8,15.5-11.8,23.3
		c-12.4,25.1-24.7,50.3-37.1,75.4c-0.3,0.5-0.4,1.1-1.1,1.2c-0.9,0.1-1.1-0.6-1.4-1.2c-3.5-7.2-6.9-14.5-10.4-21.7
		c0.1-1,0.2-2,0.6-2.9c3-6.6,6.2-13.1,9.4-19.5C75.2,86.3,75.6,85.7,76.3,85.3z"/>
	<path class="st1" d="M215.7,61.2c1.9-9,5.7-17.2,11.3-24.5c19.3-25.1,55.5-31.8,82.6-15.4c2.1,1.3,2.2,2.1,0.7,4
		c-3.5,4.5-6.9,9.2-10.1,13.9c-1.3,2-2.2,2.2-4.4,1c-16.8-9-36.6-5.4-48.9,8.8c-3,3.4-5.3,7.3-6.7,11.6c-0.6,1.8-1.5,2.4-3.4,2.4
		c-6.3-0.1-12.6,0-18.9-0.1C216.9,62.9,215.2,63.5,215.7,61.2z"/>
	<path class="st0" d="M227.8,84.9c0.3,0,0.7,0,1,0c6.8-0.8,11.1,0.8,14.6,7.9c6.8,13.8,24.2,20.8,39.4,18.3
		c4.7-0.8,9.1-2.2,13.1-4.6c2.1-1.3,3-0.7,4.2,1c3.4,4.8,6.8,9.7,10.4,14.3c1.3,1.6,0.9,2.4-0.6,3.3c-6.7,4.2-14,7-21.7,8.5
		c-12.4,2.4-24.6,1-36.1-4c-18.5-8-30.7-21.8-36.1-41.4c-0.6-2.1-0.5-3.5,2.3-3.1c1.5,0.2,3.1-0.1,4.7-0.1
		C224.7,84.9,226.2,84.9,227.8,84.9z"/>
	<path class="st2" d="M76.3,85.3c-3.5,8.2-7.6,16.2-11.6,24.2c-10-20.4-20.1-40.8-30.2-61.2c-5.5-11.4-11-22.8-16.7-34.1
		c-1.2-2.4-1.5-3.4,1.9-3.3c5.4,0.2,10.8,0.3,16.2,0c3.1-0.2,4.7,0.9,6.1,3.7c11,23,22.2,46,33.4,69C75.6,84.2,76,84.7,76.3,85.3z"
		/>
	<path class="st1" d="M169.8,112.3c14.3,0,28.6,0,42.8-0.1c2.3,0,3.3,0.5,3.2,2.9c-0.1,5.3-0.1,10.6,0,15.8c0.1,2.3-0.8,2.8-3,2.8
		c-28.7-0.1-57.3-0.1-86,0c-2.5,0-3-0.8-2.9-3.1c0.2-5.2,0.2-10.3,0-15.5c-0.1-2.4,0.6-3,3-3C141.3,112.3,155.5,112.3,169.8,112.3z"
		/>
	<path class="st1" d="M126.5,32.4c3.5-7.1,6.9-14.2,10.4-21.3c14.3-0.1,28.5-0.1,42.8-0.1c11,0,22,0.1,33-0.1c2.6,0,3.3,0.7,3.2,3.2
		c-0.2,5.3-0.1,10.6,0,15.8c0,1.8-0.3,2.6-2.4,2.6C184.5,32.5,155.5,32.5,126.5,32.4z"/>
	<path class="st0" d="M162.3,63.2c11.6,0,23.1,0.1,34.7,0c2.6,0,3.6,0.6,3.4,3.4c-0.2,5-0.2,10.1,0,15.2c0.1,2.4-0.8,3-3.1,3
		c-23.5-0.1-47-0.1-70.4,0c-2.2,0-2.9-0.8-2.9-2.9c0.1-5.3,0.1-10.6,0-15.8c0-2.2,0.7-2.9,2.9-2.8C138.7,63.2,150.5,63.2,162.3,63.2
		z"/>
	<g>
		<g>
			<path class="st3" d="M234.4,75.2v6.4h-3V66.1h6.6c3.3,0,5.1,1.8,5.1,4.3c0,2.1-1.1,3.2-2.4,3.7c0.9,0.3,2.1,1.1,2.1,3.9v0.7
				c0,1.1,0,2.3,0.2,3h-2.9c-0.3-0.7-0.3-1.9-0.3-3.5v-0.3c0-1.8-0.5-2.7-3.1-2.7H234.4z M234.4,72.8h3c2,0,2.8-0.8,2.8-2.2
				c0-1.4-0.9-2.1-2.7-2.1h-3.1V72.8z"/>
			<path class="st3" d="M277.6,74.8h-7.5v4.4h8.3l-0.4,2.5h-10.9V66.1h10.8v2.5H270v3.7h7.5v2.5H277.6z"/>
			<path class="st3" d="M301.7,81.7V66.1h3.8c2,3.5,6,10.3,6.7,12l0,0c-0.2-1.7-0.2-4.4-0.2-6.9v-5h2.8v15.6h-3.6
				c-1.8-3.1-6.1-10.7-6.9-12.5l0,0c0.1,1.5,0.1,4.5,0.1,7.3v5.2L301.7,81.7L301.7,81.7z"/>
			<path class="st3" d="M342.7,68.6h-4.8v-2.5h12.7v2.5h-4.8v13.1h-3V68.6H342.7z"/>
			<path class="st3" d="M374.4,77.8l-1.3,3.9h-3l5.4-15.6h3.8l5.6,15.6h-3.2l-1.4-3.9H374.4z M379.6,75.3c-1.2-3.5-1.9-5.6-2.3-7
				l0,0c-0.4,1.5-1.2,4-2.2,7H379.6z"/>
			<path class="st3" d="M407.7,66.1h3v13.1h7.9l-0.4,2.5h-10.5V66.1z"/>
		</g>
		<g>
			<path class="st4" d="M234.4,75.2v6.4h-3V66.1h6.6c3.3,0,5.1,1.8,5.1,4.3c0,2.1-1.1,3.2-2.4,3.7c0.9,0.3,2.1,1.1,2.1,3.9v0.7
				c0,1.1,0,2.3,0.2,3h-2.9c-0.3-0.7-0.3-1.9-0.3-3.5v-0.3c0-1.8-0.5-2.7-3.1-2.7H234.4z M234.4,72.8h3c2,0,2.8-0.8,2.8-2.2
				c0-1.4-0.9-2.1-2.7-2.1h-3.1V72.8z"/>
			<path class="st4" d="M277.6,74.8h-7.5v4.4h8.3l-0.4,2.5h-10.9V66.1h10.8v2.5H270v3.7h7.5v2.5H277.6z"/>
			<path class="st4" d="M301.7,81.7V66.1h3.8c2,3.5,6,10.3,6.7,12l0,0c-0.2-1.7-0.2-4.4-0.2-6.9v-5h2.8v15.6h-3.6
				c-1.8-3.1-6.1-10.7-6.9-12.5l0,0c0.1,1.5,0.1,4.5,0.1,7.3v5.2L301.7,81.7L301.7,81.7z"/>
			<path class="st4" d="M342.7,68.6h-4.8v-2.5h12.7v2.5h-4.8v13.1h-3V68.6H342.7z"/>
			<path class="st4" d="M374.4,77.8l-1.3,3.9h-3l5.4-15.6h3.8l5.6,15.6h-3.2l-1.4-3.9H374.4z M379.6,75.3c-1.2-3.5-1.9-5.6-2.3-7
				l0,0c-0.4,1.5-1.2,4-2.2,7H379.6z"/>
			<path class="st4" d="M407.7,66.1h3v13.1h7.9l-0.4,2.5h-10.5V66.1z"/>
		</g>
	</g>
</g>
<line class="st5" x1="16.6" y1="203.9" x2="433.4" y2="203.9"/>
<g>
	<path class="st6" d="M22.6,169h7.6v5h-7.6v10.3h9.5v5H17.1v-35.2h15.1v5h-9.5V169z"/>
	<path class="st6" d="M35.1,162.6c0-5.6,3-8.8,8.4-8.8s8.4,3.2,8.4,8.8v18.3c0,2-0.4,3.6-1.1,4.9c0.3,0.7,0.7,0.8,1.6,0.8h0.5v4.9
		h-0.8c-2.5,0-4-0.9-4.8-2.4c-1.1,0.4-2.4,0.7-3.9,0.7c-5.4,0-8.4-3.2-8.4-8.8V162.6z M40.7,181.3c0,2.5,1.1,3.5,2.9,3.5
		s2.9-1,2.9-3.5v-19c0-2.5-1.1-3.5-2.9-3.5s-2.9,1-2.9,3.5V181.3z"/>
	<path class="st6" d="M60.8,154.2v27.1c0,2.5,1.1,3.4,2.9,3.4s2.9-0.9,2.9-3.4v-27.1h5.2V181c0,5.6-2.8,8.8-8.2,8.8
		s-8.2-3.2-8.2-8.8v-26.8H60.8z"/>
	<path class="st6" d="M75.5,154.2H81v35.2h-5.5V154.2z"/>
	<path class="st6" d="M101.4,162.9v4.6c0,5.6-2.7,8.7-8.2,8.7h-2.6v13.2H85v-35.2h8.1C98.7,154.2,101.4,157.3,101.4,162.9z
		 M90.6,159.2v11.9h2.6c1.8,0,2.7-0.8,2.7-3.3v-5.3c0-2.5-1-3.3-2.7-3.3H90.6z"/>
	<path class="st6" d="M103.5,162.6c0-5.6,3-8.8,8.4-8.8c5.4,0,8.4,3.2,8.4,8.8v18.3c0,5.6-3,8.8-8.4,8.8c-5.4,0-8.4-3.2-8.4-8.8
		V162.6z M109,181.3c0,2.5,1.1,3.5,2.9,3.5c1.8,0,2.9-1,2.9-3.5v-19c0-2.5-1.1-3.5-2.9-3.5c-1.8,0-2.9,1-2.9,3.5V181.3z"/>
	<path class="st6" d="M131.3,153.8c5.4,0,8.1,3.2,8.1,8.8v1.1h-5.2v-1.5c0-2.5-1-3.5-2.8-3.5s-2.8,1-2.8,3.5c0,2.6,1.1,4.5,4.7,7.6
		c4.6,4.1,6.1,7,6.1,11c0,5.6-2.8,8.8-8.2,8.8c-5.4,0-8.2-3.2-8.2-8.8v-2.2h5.2v2.5c0,2.5,1.1,3.4,2.9,3.4s2.9-0.9,2.9-3.4
		c0-2.6-1.1-4.5-4.7-7.6c-4.6-4.1-6.1-7-6.1-11C123.2,157,125.9,153.8,131.3,153.8z"/>
	<path class="st6" d="M166.8,162.9v4.6c0,5.6-2.7,8.7-8.2,8.7H156v13.2h-5.5v-35.2h8.1C164.1,154.2,166.8,157.3,166.8,162.9z
		 M156,159.2v11.9h2.6c1.8,0,2.7-0.8,2.7-3.3v-5.3c0-2.5-1-3.3-2.7-3.3H156z"/>
	<path class="st6" d="M186.6,189.4H181l-1-6.4h-6.8l-1,6.4h-5.1l5.6-35.2h8.1L186.6,189.4z M174,178.2h5.3l-2.6-17.8h-0.1L174,178.2
		z"/>
	<path class="st6" d="M200.7,189.4c-0.3-0.9-0.5-1.5-0.5-4.3v-5.5c0-3.3-1.1-4.5-3.6-4.5h-1.9v14.3h-5.5v-35.2h8.3
		c5.7,0,8.2,2.7,8.2,8.1v2.8c0,3.6-1.2,5.9-3.6,7.1v0.1c2.8,1.2,3.7,3.8,3.7,7.4v5.4c0,1.7,0,3,0.6,4.3H200.7z M194.7,159.2V170h2.2
		c2.1,0,3.3-0.9,3.3-3.7v-3.5c0-2.5-0.9-3.6-2.8-3.6H194.7z"/>
	<path class="st6" d="M227.3,189.4h-5.6l-1-6.4h-6.8l-1,6.4h-5.1l5.6-35.2h8.1L227.3,189.4z M214.7,178.2h5.3l-2.6-17.8h-0.1
		L214.7,178.2z"/>
	<path class="st6" d="M243.1,169h7.6v5h-7.6v10.3h9.5v5h-15.1v-35.2h15.1v5h-9.5V169z"/>
	<path class="st6" d="M256.1,154.2h5.5v30.1h9.1v5h-14.6V154.2z"/>
	<path class="st6" d="M297.3,162.9v4.6c0,5.6-2.7,8.7-8.2,8.7h-2.6v13.2h-5.5v-35.2h8.1C294.6,154.2,297.3,157.3,297.3,162.9z
		 M286.4,159.2v11.9h2.6c1.8,0,2.7-0.8,2.7-3.3v-5.3c0-2.5-1-3.3-2.7-3.3H286.4z"/>
	<path class="st6" d="M311.4,189.4c-0.3-0.9-0.5-1.5-0.5-4.3v-5.5c0-3.3-1.1-4.5-3.6-4.5h-1.9v14.3h-5.5v-35.2h8.3
		c5.7,0,8.2,2.7,8.2,8.1v2.8c0,3.6-1.2,5.9-3.6,7.1v0.1c2.8,1.2,3.7,3.8,3.7,7.4v5.4c0,1.7,0,3,0.6,4.3H311.4z M305.4,159.2V170h2.2
		c2.1,0,3.3-0.9,3.3-3.7v-3.5c0-2.5-0.9-3.6-2.8-3.6H305.4z"/>
	<path class="st6" d="M319.6,162.6c0-5.6,3-8.8,8.4-8.8s8.4,3.2,8.4,8.8v18.3c0,5.6-3,8.8-8.4,8.8s-8.4-3.2-8.4-8.8V162.6z
		 M325.1,181.3c0,2.5,1.1,3.5,2.9,3.5s2.9-1,2.9-3.5v-19c0-2.5-1.1-3.5-2.9-3.5s-2.9,1-2.9,3.5V181.3z"/>
	<path class="st6" d="M348.2,169.8h7.7v11.2c0,5.6-2.8,8.8-8.2,8.8s-8.2-3.2-8.2-8.8v-18.3c0-5.6,2.8-8.8,8.2-8.8s8.2,3.2,8.2,8.8
		v3.4h-5.2v-3.8c0-2.5-1.1-3.5-2.9-3.5s-2.9,1-2.9,3.5v19c0,2.5,1.1,3.4,2.9,3.4s2.9-0.9,2.9-3.4v-6.5h-2.5V169.8z"/>
	<path class="st6" d="M371.1,189.4c-0.3-0.9-0.5-1.5-0.5-4.3v-5.5c0-3.3-1.1-4.5-3.6-4.5h-1.9v14.3h-5.5v-35.2h8.3
		c5.7,0,8.2,2.7,8.2,8.1v2.8c0,3.6-1.2,5.9-3.6,7.1v0.1c2.8,1.2,3.7,3.8,3.7,7.4v5.4c0,1.7,0,3,0.6,4.3H371.1z M365.1,159.2V170h2.2
		c2.1,0,3.3-0.9,3.3-3.7v-3.5c0-2.5-0.9-3.6-2.8-3.6H365.1z"/>
	<path class="st6" d="M385.3,169h7.6v5h-7.6v10.3h9.5v5h-15.1v-35.2h15.1v5h-9.5V169z"/>
	<path class="st6" d="M405.7,153.8c5.4,0,8.1,3.2,8.1,8.8v1.1h-5.2v-1.5c0-2.5-1-3.5-2.8-3.5c-1.8,0-2.8,1-2.8,3.5
		c0,2.6,1.1,4.5,4.7,7.6c4.6,4.1,6.1,7,6.1,11c0,5.6-2.8,8.8-8.2,8.8s-8.2-3.2-8.2-8.8v-2.2h5.2v2.5c0,2.5,1.1,3.4,2.9,3.4
		c1.8,0,2.9-0.9,2.9-3.4c0-2.6-1.1-4.5-4.7-7.6c-4.6-4.1-6.1-7-6.1-11C397.5,157,400.3,153.8,405.7,153.8z"/>
	<path class="st6" d="M416.6,162.6c0-5.6,3-8.8,8.4-8.8s8.4,3.2,8.4,8.8v18.3c0,5.6-3,8.8-8.4,8.8s-8.4-3.2-8.4-8.8V162.6z
		 M422.1,181.3c0,2.5,1.1,3.5,2.9,3.5s2.9-1,2.9-3.5v-19c0-2.5-1.1-3.5-2.9-3.5s-2.9,1-2.9,3.5V181.3z"/>
</g>
</svg>
