<?xml version="1.0" encoding="utf-8"?>
<!-- Generator: Adobe Illustrator 23.0.2, SVG Export Plug-In . SVG Version: 6.00 Build 0)  -->
<svg version="1.1" id="Capa_1" xmlns="http://www.w3.org/2000/svg" xmlns:xlink="http://www.w3.org/1999/xlink" x="0px" y="0px"
	 viewBox="0 0 450 150" style="enable-background:new 0 0 450 150;" xml:space="preserve">
<style type="text/css">
	.st0{fill:#75A93A;}
	.st1{fill:#11277C;}
	.st2{fill:#00296E;}
	.st3{fill:#070308;}
	.st4{fill:#201813;}
</style>
<g>
	<path class="st0" d="M433.7,59.9c-4.4-17.2-14-30.7-29.5-39.4C385.5,9.9,366,8.8,346.3,17.7c-18.7,8.4-30,23-35.1,42.7
		c-0.3,1.3-0.3,2.1,1.5,2l19.5,0.1c2,0.1,2.8-0.6,3.6-2.5c6.4-15.4,18-23.8,34.6-24.9c16.8-1.1,32.8,9,38.6,24.6
		c0.9,2.3,1.8,2.7,3.9,2.7c6.2-0.1,12.3-0.2,18.5,0C433.6,62.4,434.2,61.8,433.7,59.9z"/>
	<path class="st1" d="M431.3,84.5c-6.2,0.2-12.4,0.2-18.5,0c-2.2-0.1-3,0.8-3.9,2.7c-6.6,15-18.3,23.1-34.4,24
		c-14.9,0.8-26.6-5.7-35.1-18.1c-1.7-2.4-1.8-6.2-4.1-7.8l-23.1-0.2c-0.9,0.7-0.4,2.2,0.7,5.7c9.3,29.8,39.8,48.2,70.8,42.3
		c25.9-4.9,42.5-20.4,49.9-45.7C434.2,85.2,433.8,84.4,431.3,84.5z"/>
	<path class="st0" d="M76.3,85.3c3.4-4.6,5.4-10,7.9-15.1c9.2-18.6,18.2-37.3,27.2-56c1.2-2.4,2.5-3.4,5.3-3.3
		c6.7,0.3,13.4,0.2,20.2,0.2c0.4,2.4-1.1,4.3-2.1,6.2c-2,3.9-4,7.8-5.7,11.8c-0.6,1.3-1.2,2.7-2.6,3.4c-4.5,7.5-8,15.5-11.8,23.3
		c-12.4,25.1-24.7,50.3-37.1,75.4c-0.3,0.5-0.4,1.1-1.1,1.2c-0.9,0.1-1.1-0.6-1.4-1.2c-3.5-7.2-6.9-14.5-10.4-21.7
		c0.1-1,0.2-2,0.6-2.9c3-6.6,6.2-13.1,9.4-19.5C75.2,86.3,75.6,85.7,76.3,85.3z"/>
	<path class="st1" d="M215.7,61.2c1.9-9,5.7-17.2,11.3-24.5c19.3-25.1,55.5-31.8,82.6-15.4c2.1,1.3,2.2,2.1,0.7,4
		c-3.5,4.5-6.9,9.2-10.1,13.9c-1.3,2-2.2,2.2-4.4,1c-16.8-9-36.6-5.4-48.9,8.8c-3,3.4-5.3,7.3-6.7,11.6c-0.6,1.8-1.5,2.4-3.4,2.4
		c-6.3-0.1-12.6,0-18.9-0.1C216.9,62.9,215.2,63.5,215.7,61.2z"/>
	<path class="st0" d="M227.8,84.9c0.3,0,0.7,0,1,0c6.8-0.8,11.1,0.8,14.6,7.9c6.8,13.8,24.2,20.8,39.4,18.3
		c4.7-0.8,9.1-2.2,13.1-4.6c2.1-1.3,3-0.7,4.2,1c3.4,4.8,6.8,9.7,10.4,14.3c1.3,1.6,0.9,2.4-0.6,3.3c-6.7,4.2-14,7-21.7,8.5
		c-12.4,2.4-24.6,1-36.1-4c-18.5-8-30.7-21.8-36.1-41.4c-0.6-2.1-0.5-3.5,2.3-3.1c1.5,0.2,3.1-0.1,4.7-0.1
		C224.7,84.9,226.2,84.9,227.8,84.9z"/>
	<path class="st2" d="M76.3,85.3c-3.5,8.2-7.6,16.2-11.6,24.2C54.7,89.1,44.6,68.7,34.5,48.3C29,36.9,23.5,25.5,17.8,14.2
		c-1.2-2.4-1.5-3.4,1.9-3.3c5.4,0.2,10.8,0.3,16.2,0c3.1-0.2,4.7,0.9,6.1,3.7c11,23,22.2,46,33.4,69C75.6,84.2,76,84.7,76.3,85.3z"
		/>
	<path class="st1" d="M169.8,112.3c14.3,0,28.6,0,42.8-0.1c2.3,0,3.3,0.5,3.2,2.9c-0.1,5.3-0.1,10.6,0,15.8c0.1,2.3-0.8,2.8-3,2.8
		c-28.7-0.1-57.3-0.1-86,0c-2.5,0-3-0.8-2.9-3.1c0.2-5.2,0.2-10.3,0-15.5c-0.1-2.4,0.6-3,3-3C141.3,112.3,155.5,112.3,169.8,112.3z"
		/>
	<path class="st1" d="M126.5,32.4c3.5-7.1,6.9-14.2,10.4-21.3c14.3-0.1,28.5-0.1,42.8-0.1c11,0,22,0.1,33-0.1c2.6,0,3.3,0.7,3.2,3.2
		c-0.2,5.3-0.1,10.6,0,15.8c0,1.8-0.3,2.6-2.4,2.6C184.5,32.5,155.5,32.5,126.5,32.4z"/>
	<path class="st0" d="M162.3,63.2c11.6,0,23.1,0.1,34.7,0c2.6,0,3.6,0.6,3.4,3.4c-0.2,5-0.2,10.1,0,15.2c0.1,2.4-0.8,3-3.1,3
		c-23.5-0.1-47-0.1-70.4,0c-2.2,0-2.9-0.8-2.9-2.9c0.1-5.3,0.1-10.6,0-15.8c0-2.2,0.7-2.9,2.9-2.8C138.7,63.2,150.5,63.2,162.3,63.2
		z"/>
	<g>
		<g>
			<path class="st3" d="M234.4,74.2v6.4h-3V65.1h6.6c3.3,0,5.1,1.8,5.1,4.3c0,2.1-1.1,3.2-2.4,3.7c0.9,0.3,2.1,1.1,2.1,3.9v0.7
				c0,1.1,0,2.3,0.2,3h-2.9c-0.3-0.7-0.3-1.9-0.3-3.5v-0.3c0-1.8-0.5-2.7-3.1-2.7H234.4z M234.4,71.8h3c2,0,2.8-0.8,2.8-2.2
				c0-1.4-0.9-2.1-2.7-2.1h-3.1V71.8z"/>
			<path class="st3" d="M277.6,73.8h-7.5v4.4h8.3l-0.4,2.5h-10.9V65.1h10.8v2.5h-7.9v3.7h7.5V73.8z"/>
			<path class="st3" d="M301.7,80.7V65.1h3.8c2,3.5,6,10.3,6.7,12h0c-0.2-1.7-0.2-4.4-0.2-6.9v-5h2.8v15.6h-3.6
				c-1.8-3.1-6.1-10.7-6.9-12.5h0c0.1,1.5,0.1,4.5,0.1,7.3v5.2H301.7z"/>
			<path class="st3" d="M342.7,67.6h-4.8v-2.5h12.7v2.5h-4.8v13.1h-3V67.6z"/>
			<path class="st3" d="M374.4,76.8l-1.3,3.9h-3l5.4-15.6h3.8l5.6,15.6h-3.2l-1.4-3.9H374.4z M379.6,74.3c-1.2-3.5-1.9-5.6-2.3-7h0
				c-0.4,1.5-1.2,4-2.2,7H379.6z"/>
			<path class="st3" d="M407.7,65.1h3v13.1h7.9l-0.4,2.5h-10.5V65.1z"/>
		</g>
		<g>
			<path class="st4" d="M234.4,74.2v6.4h-3V65.1h6.6c3.3,0,5.1,1.8,5.1,4.3c0,2.1-1.1,3.2-2.4,3.7c0.9,0.3,2.1,1.1,2.1,3.9v0.7
				c0,1.1,0,2.3,0.2,3h-2.9c-0.3-0.7-0.3-1.9-0.3-3.5v-0.3c0-1.8-0.5-2.7-3.1-2.7H234.4z M234.4,71.8h3c2,0,2.8-0.8,2.8-2.2
				c0-1.4-0.9-2.1-2.7-2.1h-3.1V71.8z"/>
			<path class="st4" d="M277.6,73.8h-7.5v4.4h8.3l-0.4,2.5h-10.9V65.1h10.8v2.5h-7.9v3.7h7.5V73.8z"/>
			<path class="st4" d="M301.7,80.7V65.1h3.8c2,3.5,6,10.3,6.7,12h0c-0.2-1.7-0.2-4.4-0.2-6.9v-5h2.8v15.6h-3.6
				c-1.8-3.1-6.1-10.7-6.9-12.5h0c0.1,1.5,0.1,4.5,0.1,7.3v5.2H301.7z"/>
			<path class="st4" d="M342.7,67.6h-4.8v-2.5h12.7v2.5h-4.8v13.1h-3V67.6z"/>
			<path class="st4" d="M374.4,76.8l-1.3,3.9h-3l5.4-15.6h3.8l5.6,15.6h-3.2l-1.4-3.9H374.4z M379.6,74.3c-1.2-3.5-1.9-5.6-2.3-7h0
				c-0.4,1.5-1.2,4-2.2,7H379.6z"/>
			<path class="st4" d="M407.7,65.1h3v13.1h7.9l-0.4,2.5h-10.5V65.1z"/>
		</g>
	</g>
</g>
</svg>
